<svg xmlns="http://www.w3.org/2000/svg" width="150" viewBox="0 0 150 150" height="150" version="1.0"><defs><clipPath id="a"><path d="M 11 25 L 96 25 L 96 82 L 11 82 Z M 11 25"/></clipPath><clipPath id="b"><path d="M 72.082031 8.832031 L 0.113281 32.332031 L 23.925781 105.257812 L 95.894531 81.761719 Z M 72.082031 8.832031"/></clipPath><clipPath id="c"><path d="M 72.082031 8.832031 L 0.113281 32.332031 L 23.925781 105.257812 L 95.894531 81.761719 Z M 72.082031 8.832031"/></clipPath><clipPath id="d"><path d="M 36 57 L 43 57 L 43 64 L 36 64 Z M 36 57"/></clipPath><clipPath id="e"><path d="M 72.082031 8.832031 L 0.113281 32.332031 L 23.925781 105.257812 L 95.894531 81.761719 Z M 72.082031 8.832031"/></clipPath><clipPath id="f"><path d="M 72.082031 8.832031 L 0.113281 32.332031 L 23.925781 105.257812 L 95.894531 81.761719 Z M 72.082031 8.832031"/></clipPath><clipPath id="g"><path d="M 31 33 L 34 33 L 34 39 L 31 39 Z M 31 33"/></clipPath><clipPath id="h"><path d="M 72.082031 8.832031 L 0.113281 32.332031 L 23.925781 105.257812 L 95.894531 81.761719 Z M 72.082031 8.832031"/></clipPath><clipPath id="i"><path d="M 72.082031 8.832031 L 0.113281 32.332031 L 23.925781 105.257812 L 95.894531 81.761719 Z M 72.082031 8.832031"/></clipPath><clipPath id="j"><path d="M 65 47 L 67 47 L 67 53 L 65 53 Z M 65 47"/></clipPath><clipPath id="k"><path d="M 72.082031 8.832031 L 0.113281 32.332031 L 23.925781 105.257812 L 95.894531 81.761719 Z M 72.082031 8.832031"/></clipPath><clipPath id="l"><path d="M 72.082031 8.832031 L 0.113281 32.332031 L 23.925781 105.257812 L 95.894531 81.761719 Z M 72.082031 8.832031"/></clipPath><clipPath id="m"><path d="M 60 67 L 64 67 L 64 69 L 60 69 Z M 60 67"/></clipPath><clipPath id="n"><path d="M 72.082031 8.832031 L 0.113281 32.332031 L 23.925781 105.257812 L 95.894531 81.761719 Z M 72.082031 8.832031"/></clipPath><clipPath id="o"><path d="M 72.082031 8.832031 L 0.113281 32.332031 L 23.925781 105.257812 L 95.894531 81.761719 Z M 72.082031 8.832031"/></clipPath><clipPath id="p"><path d="M 53 69 L 141 69 L 141 116 L 53 116 Z M 53 69"/></clipPath><clipPath id="q"><path d="M 89.214844 42.421875 L 41.28125 92.957031 L 92.546875 141.585938 L 140.484375 91.050781 Z M 89.214844 42.421875"/></clipPath><clipPath id="r"><path d="M 89.214844 42.421875 L 41.28125 92.957031 L 92.546875 141.585938 L 140.484375 91.050781 Z M 89.214844 42.421875"/></clipPath><clipPath id="s"><path d="M 84 94 L 87 94 L 87 103 L 84 103 Z M 84 94"/></clipPath><clipPath id="t"><path d="M 89.214844 42.421875 L 41.28125 92.957031 L 92.546875 141.585938 L 140.484375 91.050781 Z M 89.214844 42.421875"/></clipPath><clipPath id="u"><path d="M 89.214844 42.421875 L 41.28125 92.957031 L 92.546875 141.585938 L 140.484375 91.050781 Z M 89.214844 42.421875"/></clipPath><clipPath id="v"><path d="M 67 79 L 71 79 L 71 84 L 67 84 Z M 67 79"/></clipPath><clipPath id="w"><path d="M 89.214844 42.421875 L 41.28125 92.957031 L 92.546875 141.585938 L 140.484375 91.050781 Z M 89.214844 42.421875"/></clipPath><clipPath id="x"><path d="M 89.214844 42.421875 L 41.28125 92.957031 L 92.546875 141.585938 L 140.484375 91.050781 Z M 89.214844 42.421875"/></clipPath><clipPath id="y"><path d="M 101 76 L 104 76 L 104 81 L 101 81 Z M 101 76"/></clipPath><clipPath id="z"><path d="M 89.214844 42.421875 L 41.28125 92.957031 L 92.546875 141.585938 L 140.484375 91.050781 Z M 89.214844 42.421875"/></clipPath><clipPath id="A"><path d="M 89.214844 42.421875 L 41.28125 92.957031 L 92.546875 141.585938 L 140.484375 91.050781 Z M 89.214844 42.421875"/></clipPath><clipPath id="B"><path d="M 105 94 L 109 94 L 109 96 L 105 96 Z M 105 94"/></clipPath><clipPath id="C"><path d="M 89.214844 42.421875 L 41.28125 92.957031 L 92.546875 141.585938 L 140.484375 91.050781 Z M 89.214844 42.421875"/></clipPath><clipPath id="D"><path d="M 89.214844 42.421875 L 41.28125 92.957031 L 92.546875 141.585938 L 140.484375 91.050781 Z M 89.214844 42.421875"/></clipPath></defs><g clip-path="url(#a)"><g clip-path="url(#b)"><g clip-path="url(#c)"><path fill="#3E6913" d="M 11.429688 64.582031 C 11.691406 64.382812 11.96875 64.21875 12.269531 64.085938 C 15.171875 62.832031 17.71875 60.980469 20.378906 59.3125 C 22.882812 57.738281 25.457031 56.300781 28.253906 55.292969 C 31.847656 54 35.484375 53.03125 39.367188 53.214844 C 42.242188 53.347656 45.058594 53.695312 47.777344 54.699219 C 48.777344 55.066406 49.785156 55.421875 50.796875 55.785156 C 50.894531 55.519531 50.75 55.367188 50.625 55.25 C 49.148438 53.792969 47.859375 52.179688 46.625 50.519531 C 46.421875 50.261719 46.183594 50.039062 45.910156 49.855469 C 45.214844 49.363281 44.472656 48.964844 43.683594 48.65625 C 42.542969 48.214844 41.386719 47.835938 40.207031 47.527344 C 38.113281 46.976562 36.105469 46.207031 34.175781 45.230469 C 31.59375 43.914062 29.261719 42.292969 27.628906 39.828125 C 25.601562 36.769531 23.253906 33.945312 21.050781 31.027344 C 20.46875 30.230469 19.925781 29.402344 19.421875 28.550781 C 19.179688 28.148438 19 27.71875 18.882812 27.261719 C 18.730469 26.640625 19.089844 26.140625 19.703125 26.003906 C 19.976562 25.941406 20.257812 25.917969 20.539062 25.929688 C 21.289062 25.953125 22.035156 26.039062 22.769531 26.195312 C 23.820312 26.445312 24.882812 26.636719 25.933594 26.878906 C 29.972656 27.820312 33.660156 29.441406 36.648438 32.441406 C 38.242188 34.039062 39.851562 35.609375 41.390625 37.253906 C 43.351562 39.339844 44.617188 41.746094 45.03125 44.570312 C 45.234375 45.984375 45.722656 47.292969 46.5 48.492188 C 46.90625 49.125 47.328125 49.746094 47.761719 50.359375 C 49.605469 52.933594 51.820312 55.164062 54.171875 57.257812 C 55.339844 58.296875 56.628906 59.140625 58.046875 59.789062 C 58.429688 59.964844 58.800781 60.164062 59.1875 60.335938 C 60.773438 61.046875 62.320312 61.835938 63.992188 62.335938 C 65.003906 62.640625 65.308594 62.640625 66.382812 62.316406 C 66.351562 61.933594 66.011719 61.800781 65.78125 61.585938 C 63.617188 59.589844 62.164062 57.164062 61.421875 54.3125 C 60.695312 51.539062 59.726562 48.839844 58.855469 46.109375 C 58.402344 44.726562 57.878906 43.371094 57.285156 42.039062 C 56.53125 40.320312 55.773438 38.59375 55.210938 36.800781 C 55.074219 36.398438 54.972656 35.992188 54.910156 35.574219 C 54.8125 34.769531 55.285156 34.328125 56.09375 34.4375 C 56.417969 34.496094 56.730469 34.582031 57.039062 34.695312 C 57.671875 34.898438 58.226562 35.265625 58.761719 35.636719 C 60.195312 36.617188 61.621094 37.609375 63.039062 38.609375 C 63.648438 39.042969 64.246094 39.503906 64.8125 39.992188 C 67.648438 42.433594 69.8125 45.320312 70.875 48.976562 C 71.910156 52.554688 72.695312 56.164062 72.449219 59.925781 C 72.414062 60.390625 72.40625 60.859375 72.421875 61.328125 C 72.464844 62.410156 72.542969 63.480469 72.949219 64.507812 C 73.195312 65.195312 73.621094 65.734375 74.238281 66.125 C 75.269531 66.773438 76.273438 67.464844 77.304688 68.113281 C 78.019531 68.566406 78.761719 68.976562 79.472656 69.421875 C 79.609375 69.5 79.6875 69.617188 79.703125 69.777344 C 82.070312 70.898438 84.339844 72.195312 86.507812 73.671875 C 89.671875 75.796875 93.078125 78.207031 95.535156 81.144531 C 95.621094 81.230469 95.664062 81.335938 95.664062 81.457031 C 95.664062 81.578125 95.621094 81.679688 95.535156 81.765625 C 95.449219 81.851562 95.34375 81.894531 95.222656 81.894531 C 95.101562 81.894531 95 81.851562 94.914062 81.765625 C 93.367188 80.550781 91.953125 79.167969 90.425781 77.933594 C 88.933594 76.726562 87.390625 75.589844 85.796875 74.527344 C 83.203125 72.796875 80.476562 71.277344 77.738281 69.792969 C 76.199219 69.820312 74.738281 69.464844 73.269531 69.078125 C 72.046875 68.757812 70.796875 68.507812 69.597656 68.105469 C 68.464844 67.730469 67.496094 67.917969 66.550781 68.582031 C 65.78125 69.117188 64.976562 69.597656 64.191406 70.113281 C 62.546875 71.195312 60.902344 72.289062 59.25 73.355469 C 57.765625 74.273438 56.175781 74.949219 54.480469 75.382812 C 52.492188 75.921875 50.433594 76.128906 48.367188 76.242188 C 47.796875 76.292969 47.246094 76.207031 46.714844 75.980469 C 46.597656 75.921875 46.496094 75.847656 46.410156 75.746094 C 46.328125 75.648438 46.265625 75.535156 46.230469 75.40625 C 46.195312 75.28125 46.191406 75.152344 46.210938 75.023438 C 46.230469 74.894531 46.277344 74.777344 46.351562 74.667969 C 46.503906 74.425781 46.691406 74.21875 46.917969 74.042969 C 47.292969 73.761719 47.679688 73.5 48.082031 73.261719 C 49.476562 72.394531 50.890625 71.5625 52.265625 70.667969 C 54.226562 69.367188 56.011719 67.859375 57.621094 66.140625 C 58.804688 64.902344 60.195312 63.964844 61.789062 63.335938 C 61.992188 63.253906 62.257812 63.238281 62.328125 62.804688 C 60.167969 61.898438 58.074219 60.960938 56.050781 59.875 C 55.621094 59.648438 55.167969 59.570312 54.691406 59.640625 C 53.425781 59.789062 52.195312 60.039062 51.023438 60.554688 C 49.566406 61.195312 48.125 61.882812 46.644531 62.457031 C 42.566406 64.011719 38.410156 65.300781 34.167969 66.328125 C 32.066406 66.847656 29.929688 67.097656 27.757812 66.84375 C 24.542969 66.464844 21.320312 66.253906 18.082031 66.414062 C 16.296875 66.527344 14.523438 66.445312 12.753906 66.171875 C 12.332031 66.128906 11.929688 66.015625 11.542969 65.835938 C 11 65.546875 10.941406 64.957031 11.429688 64.582031 Z M 40.828125 38.207031 C 39.378906 36.605469 37.808594 35.121094 36.3125 33.574219 C 33.363281 30.542969 29.746094 28.800781 25.6875 27.875 C 24.453125 27.59375 23.210938 27.347656 21.972656 27.09375 C 21.335938 26.96875 20.695312 26.863281 20.085938 27.015625 C 19.898438 27.300781 20.007812 27.519531 20.121094 27.722656 C 20.671875 28.707031 21.292969 29.644531 21.988281 30.53125 C 24.144531 33.316406 26.414062 36.011719 28.355469 38.957031 C 29.699219 40.996094 31.503906 42.53125 33.640625 43.695312 C 34.75 44.308594 35.886719 44.863281 37.050781 45.359375 C 37.605469 45.59375 38.191406 45.753906 38.765625 45.953125 C 38.898438 45.550781 38.601562 45.503906 38.449219 45.386719 C 37.089844 44.3125 35.636719 43.367188 34.285156 42.269531 C 31.144531 39.703125 28.382812 36.777344 26.007812 33.484375 C 25.097656 32.234375 24.078125 31.0625 23.113281 29.847656 C 22.945312 29.640625 22.6875 29.472656 22.773438 29.078125 C 23.296875 29.007812 23.589844 29.40625 23.929688 29.683594 C 24.324219 30.015625 24.726562 30.34375 25.09375 30.703125 C 25.417969 31.027344 25.699219 31.394531 26.050781 31.804688 C 26.433594 30.925781 25.941406 30.003906 26.496094 29.28125 C 26.722656 29.261719 26.824219 29.378906 26.835938 29.59375 C 26.957031 31.296875 27.371094 32.921875 28.082031 34.472656 C 28.597656 34.34375 28.207031 33.710938 28.753906 33.609375 C 29.210938 34.628906 29.414062 35.804688 30.15625 36.996094 C 30.222656 36.121094 29.90625 35.527344 29.863281 34.898438 C 29.8125 34.199219 29.691406 33.496094 29.703125 32.796875 C 29.714844 32.175781 29.546875 31.515625 29.984375 30.796875 C 30.308594 31.253906 30.289062 31.59375 30.3125 31.910156 C 30.457031 33.941406 31.042969 35.867188 31.664062 37.792969 C 31.921875 38.671875 32.414062 39.394531 33.140625 39.960938 C 33.535156 40.261719 33.871094 40.660156 34.476562 40.945312 C 34.386719 39.984375 34.007812 39.226562 33.878906 38.417969 C 33.742188 37.542969 33.570312 36.664062 33.496094 35.777344 C 33.433594 34.964844 33.195312 34.128906 33.398438 33.316406 C 33.707031 33.199219 33.773438 33.398438 33.8125 33.570312 C 34.152344 35.03125 34.5 36.492188 34.8125 37.957031 C 35.144531 39.480469 35.683594 40.929688 36.253906 42.367188 C 36.296875 42.5 36.390625 42.601562 36.640625 42.53125 C 36.605469 41.609375 35.914062 40.765625 36.0625 39.789062 C 36.46875 39.761719 36.507812 40.027344 36.597656 40.222656 C 37.121094 41.324219 37.640625 42.429688 38.15625 43.535156 C 38.351562 43.957031 38.347656 43.957031 39.0625 44.410156 C 39.175781 43.984375 38.90625 43.683594 38.808594 43.355469 C 38.6875 42.953125 38.527344 42.558594 38.394531 42.152344 C 38.277344 41.796875 38.160156 41.4375 38.074219 41.074219 C 37.976562 40.664062 37.894531 40.25 37.824219 39.832031 C 37.757812 39.464844 37.710938 39.09375 37.667969 38.714844 C 37.621094 38.296875 37.59375 37.875 37.554688 37.453125 C 37.519531 37.082031 37.445312 36.707031 37.703125 36.382812 C 38.015625 36.414062 38.039062 36.65625 38.085938 36.878906 C 38.445312 38.628906 38.894531 40.351562 39.441406 42.050781 C 39.683594 42.789062 39.90625 43.539062 40.492188 44.425781 C 40.503906 43.511719 40.21875 42.914062 40.148438 42.285156 C 40.078125 41.71875 39.792969 41.144531 40.21875 40.464844 C 40.585938 41.046875 40.609375 41.621094 40.796875 42.136719 C 40.984375 42.652344 41.15625 43.207031 41.371094 43.726562 C 41.582031 44.246094 41.816406 44.761719 42.078125 45.261719 C 42.339844 45.757812 42.460938 46.304688 42.851562 46.699219 C 43.160156 46.617188 43.128906 46.441406 43.074219 46.257812 C 42.742188 44.988281 42.402344 43.71875 42.074219 42.445312 C 41.996094 42.136719 41.847656 41.816406 42.269531 41.511719 C 43.03125 43.03125 43.296875 44.730469 44.125 46.207031 C 44.4375 46.035156 44.25 45.792969 44.21875 45.613281 C 44.089844 44.875 43.929688 44.144531 43.769531 43.410156 C 43.300781 41.394531 42.214844 39.722656 40.835938 38.207031 Z M 71.226562 55.054688 C 70.835938 52.496094 70.199219 50 69.316406 47.566406 C 68.726562 45.964844 67.738281 44.585938 66.667969 43.269531 C 65.785156 42.160156 64.777344 41.183594 63.640625 40.335938 C 61.746094 38.960938 59.824219 37.621094 57.902344 36.28125 C 57.507812 36.023438 57.101562 35.792969 56.675781 35.589844 C 56.476562 35.488281 56.25 35.394531 56.003906 35.535156 C 55.863281 35.972656 56.09375 36.355469 56.242188 36.734375 C 56.875 38.355469 57.492188 39.980469 58.199219 41.566406 C 58.890625 43.109375 59.496094 44.6875 60.011719 46.296875 C 60.839844 48.890625 61.78125 51.445312 62.464844 54.085938 C 63.253906 57.136719 64.972656 59.613281 67.40625 61.605469 C 67.464844 61.65625 67.574219 61.644531 67.660156 61.65625 C 67.675781 61.628906 67.714844 61.585938 67.703125 61.574219 C 66.015625 58.898438 64.832031 55.984375 63.730469 53.039062 C 63.421875 52.25 63.167969 51.445312 62.960938 50.625 C 62.214844 47.359375 60.894531 44.296875 59.523438 41.257812 C 59.332031 40.828125 59.125 40.40625 58.941406 39.976562 C 58.867188 39.8125 58.789062 39.625 59.039062 39.402344 C 59.570312 39.785156 59.796875 40.40625 60.132812 40.933594 C 60.46875 41.464844 60.746094 41.976562 61.027344 42.457031 C 61.460938 42.484375 61.429688 42.179688 61.503906 41.992188 C 61.667969 41.558594 61.753906 41.074219 62.246094 40.875 C 62.488281 40.960938 62.480469 41.132812 62.425781 41.316406 C 62.210938 42.183594 62.058594 43.058594 62.199219 44.023438 C 62.648438 43.871094 62.46875 43.246094 62.890625 43.128906 C 62.960938 43.171875 63.085938 43.21875 63.089844 43.257812 C 63.101562 44.007812 63.070312 44.753906 63 45.5 C 62.886719 46.402344 63.003906 47.273438 63.351562 48.113281 C 63.453125 48.363281 63.523438 48.628906 63.632812 49.007812 C 63.980469 48.617188 63.933594 48.226562 64.03125 47.898438 C 64.140625 47.542969 64.214844 47.171875 64.324219 46.8125 C 64.445312 46.40625 64.578125 46.007812 64.726562 45.609375 C 64.859375 45.261719 65.03125 44.925781 65.167969 44.578125 C 65.308594 44.230469 65.460938 43.90625 65.78125 43.726562 C 66.097656 43.84375 65.996094 44.039062 65.9375 44.199219 C 65.027344 46.648438 64.757812 49.210938 64.640625 51.796875 C 64.597656 52.71875 64.964844 53.695312 65.601562 54.617188 C 66.007812 54.203125 65.828125 53.519531 66.285156 53.132812 C 66.542969 53.140625 66.566406 53.304688 66.550781 53.507812 C 66.492188 54.488281 66.441406 55.472656 66.394531 56.453125 C 66.371094 56.722656 66.457031 56.949219 66.65625 57.136719 C 66.964844 56.917969 66.925781 56.585938 66.953125 56.296875 C 67.09375 54.648438 67.496094 53.058594 67.996094 51.492188 C 68.078125 51.242188 68.113281 50.921875 68.601562 50.929688 C 68.347656 52.445312 68.070312 53.945312 68 55.460938 C 67.929688 56.9375 67.632812 58.421875 67.953125 59.882812 C 68.335938 59.914062 68.269531 59.664062 68.292969 59.515625 C 68.472656 58.304688 68.761719 57.121094 69.167969 55.964844 C 69.261719 55.734375 69.363281 55.539062 69.726562 55.558594 C 69.445312 57.363281 69.035156 59.164062 69.402344 61.167969 C 70.101562 57.597656 70.101562 57.597656 70.75 57.121094 C 70.570312 59.0625 70.351562 60.953125 70.359375 62.890625 C 71.101562 62.570312 71.101562 62.570312 71.632812 62.589844 C 71.304688 61.925781 71.460938 61.210938 71.457031 60.523438 C 71.4375 58.699219 71.515625 56.878906 71.226562 55.054688 Z M 71.609375 64.289062 C 71.824219 63.644531 71.375 63.105469 71.628906 62.601562 C 71.351562 63.105469 71 63.601562 71.613281 64.285156 Z M 75.121094 68.332031 C 74.042969 67.574219 72.847656 67.25 71.535156 67.359375 C 72.667969 67.878906 73.882812 68.144531 75.121094 68.332031 Z M 53.023438 71.582031 C 51.285156 72.433594 48.375 74.25 47.667969 74.914062 C 48.304688 75.207031 49.363281 75.195312 50.816406 74.859375 C 50.964844 74.675781 50.761719 74.511719 50.808594 74.25 C 51.304688 73.957031 51.847656 74.253906 52.375 74.269531 C 52.902344 74.289062 53.378906 74.332031 54 74.371094 C 53.429688 73.734375 52.523438 73.925781 52.164062 73.214844 C 52.464844 72.933594 52.792969 73.078125 53.101562 73.144531 C 54.015625 73.355469 54.9375 73.492188 55.875 73.554688 C 56.433594 73.574219 56.433594 73.574219 57.246094 73.019531 C 55.707031 72.53125 54.269531 72.277344 53.027344 71.582031 Z M 58.679688 66.585938 C 57.597656 67.621094 56.59375 68.742188 55.402344 69.660156 C 54.953125 70.003906 54.507812 70.339844 54.066406 70.683594 C 53.925781 70.792969 53.734375 70.875 53.78125 71.230469 C 54.40625 71.515625 55.136719 71.625 55.855469 71.753906 C 56.738281 71.902344 57.621094 71.996094 58.5 72.117188 C 58.980469 72.183594 59.425781 72.148438 59.753906 71.707031 C 59.65625 71.210938 58.941406 71.410156 58.867188 70.816406 C 59.714844 70.488281 60.757812 71.167969 61.679688 70.414062 C 60.984375 69.929688 60.226562 69.808594 59.585938 69.457031 C 58.976562 69.121094 58.28125 68.917969 57.855469 68.316406 C 57.976562 67.960938 58.226562 68.082031 58.414062 68.175781 C 59.394531 68.644531 60.414062 68.984375 61.480469 69.191406 C 61.839844 69.269531 62.21875 69.304688 62.589844 69.359375 C 63.117188 69.449219 63.609375 69.378906 64.03125 69 C 64.335938 68.726562 64.769531 68.59375 65.015625 68.132812 C 63.855469 67.253906 62.300781 66.992188 61.207031 65.851562 C 61.636719 65.585938 61.921875 65.808594 62.183594 65.925781 C 63.339844 66.449219 64.535156 66.863281 65.769531 67.167969 C 65.996094 67.222656 66.222656 67.273438 66.453125 67.308594 C 66.667969 67.339844 66.824219 67.257812 66.921875 67.066406 C 66.984375 66.710938 66.355469 66.683594 66.570312 66.207031 C 67.21875 66.078125 67.882812 66.582031 68.648438 66.300781 C 67.667969 65.542969 66.410156 65.386719 65.535156 64.585938 C 65.65625 64.234375 65.898438 64.316406 66.117188 64.398438 C 67.53125 64.894531 68.941406 65.394531 70.355469 65.90625 C 70.921875 66.117188 71.488281 66.355469 72.199219 66.058594 C 71.167969 65.300781 70.191406 64.601562 69.078125 64.109375 C 68.152344 63.726562 67.191406 63.554688 66.195312 63.589844 C 63.308594 63.621094 60.78125 64.570312 58.683594 66.585938 Z M 13.429688 65.253906 C 14.96875 65.453125 16.511719 65.507812 18.058594 65.414062 C 21.199219 65.257812 24.332031 65.367188 27.453125 65.746094 C 29.632812 65.992188 31.753906 65.761719 33.867188 65.304688 C 34.460938 65.175781 35.050781 65.015625 35.636719 64.851562 C 39.199219 63.855469 42.753906 62.824219 46.199219 61.464844 C 47.675781 60.878906 49.121094 60.195312 50.582031 59.566406 C 51.167969 59.316406 51.777344 59.09375 52.527344 58.796875 C 51.835938 58.355469 51.332031 58.230469 50.734375 58.613281 C 50.238281 58.933594 49.742188 59.289062 49.128906 59.488281 C 48.976562 58.703125 49.878906 58.613281 49.894531 58.027344 C 49.195312 58.117188 49.195312 58.113281 48.195312 58.761719 C 47.644531 59.117188 47.09375 59.472656 46.546875 59.839844 C 46 60.207031 45.5625 60.675781 44.910156 61.0625 C 45.136719 59.984375 45.449219 59.640625 47.96875 57.597656 C 47.855469 57.253906 47.628906 57.390625 47.441406 57.484375 C 46.402344 58.039062 45.441406 58.703125 44.554688 59.476562 C 44.324219 59.671875 44.140625 59.984375 43.710938 59.917969 C 43.777344 59.226562 44.320312 58.871094 44.714844 58.4375 C 45.089844 58.023438 45.519531 57.660156 45.921875 57.277344 C 45.773438 56.964844 45.609375 57.136719 45.472656 57.226562 C 43.960938 58.179688 42.515625 59.210938 41.351562 60.589844 C 41.257812 60.730469 41.125 60.785156 40.960938 60.753906 C 40.675781 60.503906 40.941406 60.246094 41.066406 60.0625 C 41.695312 59.183594 42.414062 58.382812 43.214844 57.65625 C 43.484375 57.402344 43.84375 57.234375 43.984375 56.769531 C 43.351562 56.644531 42.707031 56.582031 42.058594 56.582031 C 41.703125 56.574219 41.4375 56.757812 41.171875 56.953125 C 40.570312 57.402344 39.980469 57.863281 39.378906 58.308594 C 39.160156 58.46875 38.972656 58.714844 38.574219 58.621094 C 38.636719 57.792969 39.515625 57.523438 39.792969 56.859375 C 39.59375 56.433594 39.363281 56.664062 39.148438 56.832031 C 37.4375 58.226562 35.847656 59.746094 34.492188 61.496094 C 34.378906 61.640625 34.257812 61.78125 34.128906 61.914062 C 34.105469 61.941406 34.046875 61.941406 34.003906 61.953125 C 33.683594 61.582031 33.992188 61.289062 34.15625 61.023438 C 34.921875 59.839844 35.78125 58.734375 36.742188 57.703125 C 36.988281 57.4375 37.332031 57.25 37.40625 56.84375 C 37.210938 56.609375 37.066406 56.828125 36.957031 56.910156 C 35.070312 58.324219 33.484375 60.046875 32.023438 61.878906 C 31.730469 62.246094 31.445312 62.617188 31.148438 62.980469 C 31.054688 63.089844 30.929688 63.140625 30.695312 63.023438 C 31.082031 61.867188 31.867188 60.945312 32.570312 59.988281 C 33.277344 59.027344 34.015625 58.160156 34.742188 57.253906 C 34.667969 57.183594 34.601562 57.0625 34.546875 57.070312 C 33.882812 57.148438 33.191406 57.164062 32.671875 57.667969 C 32.800781 57.65625 32.917969 57.691406 33.023438 57.773438 C 33.125 57.855469 33.1875 57.960938 33.207031 58.089844 C 31.660156 60.125 30.109375 62.160156 28.550781 64.195312 C 28.511719 64.246094 28.390625 64.222656 28.300781 64.238281 C 28.28125 64.207031 28.234375 64.167969 28.242188 64.136719 C 28.265625 63.957031 28.304688 63.777344 28.367188 63.605469 C 29.050781 62 29.957031 60.53125 31.082031 59.199219 C 31.367188 58.855469 31.765625 58.585938 31.867188 58.109375 C 31.296875 58.164062 31.0625 58.660156 30.753906 59.019531 C 29.554688 60.386719 28.460938 61.832031 27.472656 63.359375 C 27.269531 63.679688 27.183594 64.160156 26.695312 64.28125 C 26.671875 63.539062 26.652344 63.527344 26.863281 63.136719 C 27.421875 62.117188 27.992188 61.105469 28.582031 60.097656 C 28.714844 59.867188 28.902344 59.660156 28.9375 59.382812 C 28.4375 59.320312 28.300781 59.8125 27.984375 60.039062 C 27.703125 60.238281 27.554688 60.667969 27.089844 60.585938 C 26.851562 60.148438 27.445312 59.957031 27.363281 59.570312 C 27.257812 59.371094 27.257812 59.371094 26.410156 59.808594 C 26.128906 60.101562 26.617188 60.265625 26.527344 60.554688 C 26.441406 60.847656 26.253906 61.039062 26.09375 61.265625 C 25.519531 62.066406 24.945312 62.859375 24.371094 63.65625 C 24.242188 63.832031 24.136719 64.050781 23.792969 64.058594 C 23.6875 63.265625 24.09375 62.691406 24.414062 62.101562 C 24.71875 61.546875 25.058594 61.007812 25.511719 60.242188 C 24.238281 60.867188 23.808594 62 22.953125 62.65625 C 22.40625 62.558594 22.882812 62.0625 22.574219 61.832031 C 21.675781 62.492188 21.132812 63.519531 20.324219 64.246094 C 20.019531 64.203125 20.023438 64.019531 20.074219 63.828125 C 20.15625 63.566406 20.402344 63.355469 20.269531 63.019531 C 19.3125 63.152344 18.574219 63.996094 17.542969 63.855469 C 17.507812 63.851562 17.480469 63.789062 17.433594 63.738281 C 17.511719 63.628906 17.605469 63.535156 17.707031 63.453125 C 21.28125 61.292969 24.898438 59.242188 28.792969 57.691406 C 33.140625 55.960938 37.640625 55.367188 42.289062 55.625 C 44.539062 55.75 46.761719 56.0625 48.964844 56.550781 C 49.148438 56.589844 49.332031 56.589844 49.515625 56.546875 C 47.675781 55.746094 45.816406 55.023438 43.828125 54.707031 C 39.222656 53.972656 34.703125 54.15625 30.246094 55.707031 C 26.957031 56.851562 23.847656 58.359375 20.914062 60.230469 C 19.808594 60.9375 18.707031 61.648438 17.613281 62.382812 C 16.40625 63.199219 15.097656 63.832031 13.804688 64.5 C 13.527344 64.644531 13.164062 64.683594 13.019531 65.035156 C 13.046875 65.28125 13.273438 65.234375 13.433594 65.253906 Z M 32.5 57.691406 C 32.214844 57.652344 31.972656 57.695312 31.902344 58.054688 C 32.1875 58.074219 32.304688 57.816406 32.503906 57.6875 Z M 29.28125 58.742188 C 29.105469 58.902344 28.941406 59.066406 28.957031 59.328125 C 29.273438 59.246094 29.300781 59.007812 29.285156 58.746094 Z M 29.28125 58.742188"/></g></g></g><g clip-path="url(#d)"><g clip-path="url(#e)"><g clip-path="url(#f)"><path fill="#3E6913" d="M 36.578125 62.640625 C 37.402344 61.398438 38.265625 60.179688 39.339844 59.140625 C 39.941406 58.558594 40.609375 58.042969 41.253906 57.511719 C 41.507812 57.292969 41.800781 57.167969 42.132812 57.136719 C 42.296875 57.125 42.46875 57.363281 42.4375 57.523438 C 42.367188 57.828125 42.144531 58 41.933594 58.171875 C 40.050781 59.707031 38.339844 61.414062 36.796875 63.289062 C 36.691406 63.414062 36.566406 63.609375 36.328125 63.511719 C 36.144531 63.144531 36.421875 62.878906 36.578125 62.640625 Z M 36.578125 62.640625"/></g></g></g><g clip-path="url(#g)"><g clip-path="url(#h)"><g clip-path="url(#i)"><path fill="#3E6913" d="M 32.5625 38.117188 C 31.953125 36.6875 31.679688 35.179688 31.578125 33.636719 C 31.570312 33.496094 31.660156 33.375 31.921875 33.410156 C 32.378906 35.011719 33.011719 36.605469 33.257812 38.339844 C 32.789062 38.542969 32.652344 38.320312 32.5625 38.117188 Z M 32.5625 38.117188"/></g></g></g><g clip-path="url(#j)"><g clip-path="url(#k)"><g clip-path="url(#l)"><path fill="#3E6913" d="M 65.214844 51.449219 C 65.359375 50.28125 65.660156 49.152344 66.109375 48.066406 C 66.160156 47.945312 66.324219 47.761719 66.582031 47.984375 C 66.28125 49.433594 66.277344 50.980469 65.617188 52.496094 C 65.445312 52.378906 65.324219 52.226562 65.25 52.035156 C 65.175781 51.84375 65.164062 51.648438 65.214844 51.449219 Z M 65.214844 51.449219"/></g></g></g><g clip-path="url(#m)"><g clip-path="url(#n)"><g clip-path="url(#o)"><path fill="#3E6913" d="M 63.089844 68.089844 C 63.160156 68.199219 63.195312 68.320312 63.183594 68.453125 C 63.171875 68.527344 63.136719 68.585938 63.078125 68.628906 C 63.015625 68.671875 62.953125 68.6875 62.878906 68.671875 C 62.117188 68.605469 61.46875 68.242188 60.828125 67.863281 C 60.640625 67.757812 60.390625 67.671875 60.4375 67.214844 C 61.269531 67.324219 62.011719 67.597656 62.757812 67.847656 C 62.890625 67.894531 63.003906 67.976562 63.089844 68.089844 Z M 63.089844 68.089844"/></g></g></g><g clip-path="url(#p)"><g clip-path="url(#q)"><g clip-path="url(#r)"><path fill="#3E6913" d="M 64.589844 114.121094 C 64.710938 113.847656 64.863281 113.589844 65.050781 113.351562 C 66.851562 111.066406 68.097656 108.449219 69.519531 105.933594 C 70.855469 103.566406 72.308594 101.273438 74.128906 99.234375 C 76.46875 96.613281 78.988281 94.234375 82.210938 92.683594 C 84.597656 91.53125 87.03125 90.582031 89.667969 90.203125 C 90.644531 90.0625 91.613281 89.910156 92.589844 89.757812 C 92.554688 89.503906 92.371094 89.445312 92.214844 89.402344 C 90.382812 88.871094 88.632812 88.128906 86.902344 87.324219 C 86.625 87.203125 86.335938 87.128906 86.035156 87.101562 C 85.257812 87.003906 84.480469 87.007812 83.707031 87.101562 C 82.589844 87.242188 81.488281 87.445312 80.394531 87.710938 C 78.460938 88.179688 76.5 88.441406 74.507812 88.492188 C 71.839844 88.554688 69.242188 88.265625 66.839844 86.984375 C 63.859375 85.394531 60.71875 84.136719 57.65625 82.738281 C 56.832031 82.347656 56.03125 81.917969 55.25 81.445312 C 54.875 81.226562 54.542969 80.957031 54.25 80.636719 C 53.851562 80.203125 53.921875 79.636719 54.359375 79.257812 C 54.554688 79.089844 54.769531 78.949219 55.003906 78.835938 C 55.621094 78.523438 56.261719 78.269531 56.925781 78.070312 C 57.882812 77.816406 58.828125 77.503906 59.785156 77.242188 C 63.46875 76.234375 67.164062 75.933594 70.902344 77.054688 C 72.886719 77.648438 74.882812 78.21875 76.847656 78.875 C 79.351562 79.707031 81.429688 81.101562 83.003906 83.207031 C 83.789062 84.261719 84.757812 85.105469 85.914062 85.738281 C 86.519531 86.070312 87.132812 86.390625 87.753906 86.695312 C 90.375 87.972656 93.144531 88.808594 95.96875 89.476562 C 97.367188 89.808594 98.785156 89.925781 100.214844 89.828125 C 100.601562 89.804688 100.992188 89.804688 101.378906 89.773438 C 102.972656 89.652344 104.570312 89.617188 106.144531 89.289062 C 107.097656 89.09375 107.34375 88.960938 108.070312 88.226562 C 107.878906 87.929688 107.542969 87.96875 107.265625 87.898438 C 104.636719 87.226562 102.394531 85.902344 100.542969 83.914062 C 98.742188 81.992188 96.769531 80.226562 94.871094 78.398438 C 93.894531 77.476562 92.875 76.605469 91.8125 75.789062 C 90.445312 74.726562 89.078125 73.664062 87.835938 72.453125 C 87.546875 72.191406 87.285156 71.90625 87.050781 71.59375 C 86.621094 70.984375 86.8125 70.421875 87.511719 70.15625 C 87.800781 70.0625 88.09375 69.992188 88.390625 69.949219 C 88.992188 69.839844 89.601562 69.894531 90.199219 69.957031 C 91.789062 70.125 93.375 70.304688 94.960938 70.492188 C 95.648438 70.578125 96.332031 70.6875 97.003906 70.835938 C 100.371094 71.570312 103.390625 72.960938 105.851562 75.457031 C 108.261719 77.902344 110.480469 80.480469 111.929688 83.632812 C 112.109375 84.027344 112.304688 84.410156 112.527344 84.78125 C 113.035156 85.636719 113.566406 86.472656 114.347656 87.125 C 114.84375 87.574219 115.429688 87.824219 116.097656 87.871094 C 117.21875 87.945312 118.335938 88.066406 119.453125 88.140625 C 120.230469 88.191406 121.011719 88.199219 121.78125 88.246094 C 121.925781 88.253906 122.039062 88.316406 122.125 88.433594 C 124.535156 88.304688 126.9375 88.363281 129.339844 88.609375 C 132.832031 88.945312 136.648438 89.40625 139.925781 90.707031 C 140.035156 90.742188 140.113281 90.804688 140.167969 90.90625 C 140.21875 91.003906 140.230469 91.105469 140.199219 91.210938 C 140.164062 91.320312 140.101562 91.398438 140 91.453125 C 139.902344 91.503906 139.800781 91.515625 139.695312 91.480469 C 137.910156 91.175781 136.160156 90.675781 134.378906 90.34375 C 132.644531 90.019531 130.898438 89.777344 129.136719 89.613281 C 126.28125 89.347656 123.40625 89.3125 120.539062 89.308594 C 119.308594 90.003906 117.964844 90.355469 116.613281 90.6875 C 115.480469 90.960938 114.359375 91.308594 113.210938 91.507812 C 112.128906 91.699219 111.429688 92.273438 110.953125 93.226562 C 110.566406 93.996094 110.125 94.738281 109.71875 95.5 C 108.859375 97.097656 108.011719 98.703125 107.140625 100.289062 C 106.339844 101.683594 105.351562 102.925781 104.171875 104.015625 C 102.796875 105.328125 101.21875 106.394531 99.601562 107.390625 C 99.160156 107.683594 98.675781 107.851562 98.148438 107.898438 C 98.027344 107.90625 97.910156 107.890625 97.800781 107.84375 C 97.6875 107.800781 97.589844 107.734375 97.503906 107.648438 C 97.421875 107.5625 97.359375 107.464844 97.320312 107.347656 C 97.277344 107.234375 97.265625 107.117188 97.277344 107 C 97.296875 106.738281 97.355469 106.484375 97.460938 106.242188 C 97.640625 105.851562 97.839844 105.472656 98.058594 105.101562 C 98.808594 103.789062 99.589844 102.496094 100.308594 101.167969 C 101.324219 99.257812 102.109375 97.253906 102.660156 95.160156 C 103.070312 93.636719 103.785156 92.269531 104.800781 91.0625 C 104.929688 90.910156 105.136719 90.777344 105.003906 90.398438 C 102.859375 90.609375 100.753906 90.765625 98.636719 90.773438 C 98.191406 90.777344 97.789062 90.914062 97.433594 91.179688 C 96.476562 91.855469 95.589844 92.59375 94.867188 93.523438 C 93.96875 94.683594 93.105469 95.871094 92.15625 96.984375 C 89.539062 100.023438 86.738281 102.890625 83.757812 105.578125 C 82.285156 106.921875 80.664062 108.058594 78.792969 108.804688 C 76.027344 109.902344 73.328125 111.144531 70.777344 112.691406 C 69.382812 113.566406 67.910156 114.277344 66.359375 114.828125 C 65.996094 114.980469 65.621094 115.066406 65.230469 115.085938 C 64.664062 115.089844 64.359375 114.636719 64.589844 114.121094 Z M 76.8125 79.894531 C 74.933594 79.230469 73.015625 78.714844 71.125 78.117188 C 67.40625 76.953125 63.714844 77.128906 60.023438 78.15625 C 58.902344 78.46875 57.789062 78.8125 56.675781 79.148438 C 56.105469 79.324219 55.539062 79.523438 55.113281 79.910156 C 55.089844 80.226562 55.273438 80.351562 55.453125 80.46875 C 56.328125 81.027344 57.242188 81.511719 58.195312 81.925781 C 61.160156 83.238281 64.179688 84.425781 67.042969 85.960938 C 69.027344 87.023438 71.160156 87.476562 73.402344 87.484375 C 74.570312 87.492188 75.730469 87.445312 76.890625 87.335938 C 77.445312 87.285156 77.988281 87.160156 78.539062 87.066406 C 78.472656 86.683594 78.210938 86.777344 78.035156 86.746094 C 76.464844 86.472656 74.871094 86.34375 73.300781 86.046875 C 69.628906 85.34375 66.109375 84.183594 62.742188 82.558594 C 61.460938 81.941406 60.121094 81.4375 58.808594 80.878906 C 58.582031 80.785156 58.296875 80.761719 58.195312 80.40625 C 58.585938 80.117188 58.996094 80.3125 59.394531 80.390625 C 59.859375 80.484375 60.328125 80.574219 60.785156 80.707031 C 61.1875 80.824219 61.578125 81 62.042969 81.175781 C 61.964844 80.296875 61.164062 79.765625 61.296875 78.9375 C 61.472656 78.824219 61.601562 78.875 61.707031 79.042969 C 62.550781 80.367188 63.601562 81.503906 64.855469 82.449219 C 65.21875 82.117188 64.621094 81.777344 65.023438 81.457031 C 65.839844 82.082031 66.519531 82.941406 67.640625 83.585938 C 67.3125 82.847656 66.796875 82.503906 66.484375 82.015625 C 66.136719 81.46875 65.734375 80.953125 65.433594 80.382812 C 65.171875 79.875 64.742188 79.414062 64.785156 78.640625 C 65.25 78.867188 65.382812 79.148438 65.539062 79.398438 C 66.546875 80.980469 67.863281 82.285156 69.210938 83.566406 C 69.808594 84.167969 70.523438 84.539062 71.355469 84.675781 C 71.8125 84.75 72.257812 84.925781 72.871094 84.890625 C 72.375 84.152344 71.738281 83.703125 71.28125 83.105469 C 70.78125 82.457031 70.257812 81.820312 69.8125 81.136719 C 69.402344 80.503906 68.84375 79.929688 68.652344 79.183594 C 68.851562 78.957031 68.992188 79.089844 69.097656 79.207031 C 70.015625 80.242188 70.9375 81.273438 71.832031 82.324219 C 72.769531 83.410156 73.839844 84.347656 74.933594 85.265625 C 75.027344 85.351562 75.148438 85.394531 75.320312 85.226562 C 74.886719 84.496094 73.957031 84.117188 73.648438 83.257812 C 73.964844 83.058594 74.113281 83.257812 74.269531 83.375 C 75.179688 84.039062 76.082031 84.707031 76.984375 85.375 C 77.328125 85.632812 77.328125 85.636719 78.101562 85.6875 C 78.007812 85.292969 77.660156 85.167969 77.4375 84.945312 C 77.160156 84.671875 76.859375 84.421875 76.574219 84.152344 C 76.320312 83.914062 76.070312 83.675781 75.839844 83.417969 C 75.582031 83.132812 75.332031 82.832031 75.09375 82.523438 C 74.878906 82.253906 74.675781 81.976562 74.476562 81.6875 C 74.253906 81.367188 74.046875 81.039062 73.832031 80.714844 C 73.640625 80.429688 73.414062 80.160156 73.484375 79.78125 C 73.746094 79.671875 73.875 79.859375 74.011719 80.019531 C 75.066406 81.277344 76.1875 82.476562 77.375 83.613281 C 77.894531 84.101562 78.402344 84.613281 79.269531 85.074219 C 78.875 84.328125 78.382812 83.96875 78.046875 83.492188 C 77.746094 83.066406 77.261719 82.726562 77.308594 81.988281 C 77.859375 82.296875 78.132812 82.753906 78.507812 83.089844 C 78.886719 83.425781 79.269531 83.796875 79.671875 84.125 C 80.070312 84.453125 80.488281 84.765625 80.917969 85.054688 C 81.347656 85.34375 81.683594 85.734375 82.175781 85.882812 C 82.386719 85.679688 82.285156 85.554688 82.160156 85.425781 C 81.332031 84.542969 80.503906 83.664062 79.679688 82.777344 C 79.480469 82.5625 79.21875 82.367188 79.425781 81.933594 C 80.710938 82.835938 81.671875 84.097656 82.992188 84.925781 C 83.167969 84.652344 82.910156 84.539062 82.804688 84.40625 C 82.375 83.863281 81.925781 83.339844 81.472656 82.816406 C 80.210938 81.390625 78.597656 80.515625 76.816406 79.886719 Z M 108.804688 80.226562 C 107.367188 78.324219 105.757812 76.582031 103.972656 75 C 102.792969 73.960938 101.386719 73.273438 99.945312 72.679688 C 98.746094 72.167969 97.5 71.816406 96.210938 71.628906 C 94.070312 71.34375 91.925781 71.101562 89.785156 70.855469 C 89.351562 70.820312 88.921875 70.8125 88.488281 70.835938 C 88.285156 70.839844 88.058594 70.863281 87.921875 71.082031 C 88 71.496094 88.355469 71.710938 88.640625 71.953125 C 89.863281 72.984375 91.074219 74.03125 92.34375 75.007812 C 93.582031 75.953125 94.761719 76.964844 95.886719 78.042969 C 97.691406 79.78125 99.574219 81.4375 101.285156 83.277344 C 103.265625 85.402344 105.746094 86.65625 108.585938 87.203125 C 108.65625 87.21875 108.738281 87.160156 108.816406 87.132812 C 108.816406 87.101562 108.828125 87.050781 108.8125 87.046875 C 106.273438 85.621094 104.039062 83.777344 101.851562 81.875 C 101.257812 81.371094 100.699219 80.832031 100.171875 80.257812 C 98.136719 77.941406 95.726562 76.039062 93.28125 74.175781 C 92.9375 73.914062 92.585938 73.664062 92.246094 73.394531 C 92.113281 73.292969 91.96875 73.175781 92.074219 72.886719 C 92.671875 72.964844 93.128906 73.367188 93.632812 73.648438 C 94.136719 73.929688 94.585938 74.222656 95.023438 74.488281 C 95.386719 74.320312 95.230469 74.089844 95.203125 73.90625 C 95.148438 73.480469 95.007812 73.050781 95.316406 72.675781 C 95.550781 72.640625 95.617188 72.78125 95.65625 72.953125 C 95.863281 73.75 96.121094 74.527344 96.660156 75.246094 C 96.957031 74.921875 96.535156 74.496094 96.828125 74.21875 C 96.902344 74.222656 97.023438 74.203125 97.042969 74.234375 C 97.382812 74.835938 97.6875 75.457031 97.957031 76.089844 C 98.261719 76.871094 98.738281 77.523438 99.386719 78.050781 C 99.578125 78.210938 99.75 78.394531 100.007812 78.65625 C 100.113281 78.1875 99.90625 77.890625 99.84375 77.582031 C 99.777344 77.242188 99.671875 76.910156 99.601562 76.574219 C 99.523438 76.191406 99.453125 75.808594 99.402344 75.425781 C 99.355469 75.082031 99.347656 74.734375 99.304688 74.394531 C 99.265625 74.050781 99.246094 73.71875 99.425781 73.433594 C 99.734375 73.390625 99.738281 73.59375 99.761719 73.753906 C 100.101562 76.132812 101.007812 78.324219 102.042969 80.46875 C 102.414062 81.238281 103.140625 81.863281 104.0625 82.332031 C 104.207031 81.820312 103.761719 81.34375 103.964844 80.832031 C 104.175781 80.726562 104.265625 80.847656 104.34375 81.019531 C 104.726562 81.839844 105.113281 82.65625 105.507812 83.472656 C 105.605469 83.703125 105.777344 83.847656 106.019531 83.910156 C 106.171875 83.601562 105.996094 83.347656 105.890625 83.101562 C 105.285156 81.707031 104.910156 80.242188 104.625 78.753906 C 104.585938 78.515625 104.472656 78.242188 104.871094 78.035156 C 105.328125 79.371094 105.765625 80.707031 106.371094 81.96875 C 106.964844 83.195312 107.375 84.523438 108.277344 85.570312 C 108.597656 85.425781 108.433594 85.253906 108.386719 85.121094 C 108 84.0625 107.71875 82.976562 107.539062 81.863281 C 107.511719 81.636719 107.507812 81.433594 107.8125 81.289062 C 108.375 82.875 108.832031 84.515625 110.011719 85.972656 C 109.011719 82.777344 109.011719 82.777344 109.324219 82.105469 C 110.035156 83.757812 110.683594 85.382812 111.539062 86.953125 C 112 86.367188 112 86.363281 112.441406 86.148438 C 111.882812 85.753906 111.695312 85.109375 111.390625 84.550781 C 110.574219 83.085938 109.839844 81.574219 108.804688 80.226562 Z M 113.167969 87.535156 C 113.058594 86.917969 112.457031 86.679688 112.441406 86.160156 C 112.4375 86.6875 112.371094 87.246094 113.167969 87.53125 Z M 117.78125 89.273438 C 116.574219 89.128906 115.464844 89.390625 114.453125 90.054688 C 115.597656 89.980469 116.699219 89.660156 117.785156 89.269531 Z M 101.324219 101.578125 C 100.292969 103.027344 98.730469 105.773438 98.449219 106.621094 C 99.09375 106.582031 99.945312 106.109375 100.976562 105.199219 C 101.011719 104.984375 100.777344 104.941406 100.699219 104.707031 C 100.976562 104.253906 101.542969 104.257812 101.976562 104.039062 C 102.414062 103.824219 102.816406 103.648438 103.339844 103.410156 C 102.597656 103.140625 101.945312 103.695312 101.34375 103.277344 C 101.464844 102.917969 101.792969 102.890625 102.070312 102.808594 C 102.902344 102.578125 103.710938 102.285156 104.496094 101.925781 C 104.957031 101.699219 104.957031 101.699219 105.371094 100.894531 C 103.914062 101.171875 102.636719 101.597656 101.324219 101.578125 Z M 103.707031 95.054688 C 103.289062 96.367188 102.964844 97.714844 102.40625 98.980469 C 102.195312 99.453125 101.980469 99.925781 101.773438 100.394531 C 101.707031 100.542969 101.589844 100.695312 101.785156 100.960938 C 102.414062 100.917969 103.050781 100.6875 103.691406 100.476562 C 104.472656 100.210938 105.226562 99.902344 105.992188 99.613281 C 106.410156 99.457031 106.753906 99.234375 106.824219 98.734375 C 106.527344 98.375 106.039062 98.847656 105.71875 98.398438 C 106.261719 97.761719 107.398438 97.855469 107.816406 96.839844 C 107.042969 96.753906 106.375 96.988281 105.703125 96.984375 C 105.0625 96.980469 104.410156 97.117188 103.800781 96.820312 C 103.742188 96.476562 104 96.46875 104.195312 96.460938 C 105.191406 96.410156 106.164062 96.238281 107.117188 95.941406 C 107.441406 95.84375 107.765625 95.707031 108.089844 95.59375 C 108.554688 95.429688 108.925781 95.160156 109.097656 94.667969 C 109.226562 94.3125 109.519531 94.015625 109.515625 93.535156 C 108.191406 93.332031 106.820312 93.800781 105.429688 93.355469 C 105.664062 92.953125 105.992188 93.007812 106.253906 92.984375 C 107.421875 92.902344 108.570312 92.714844 109.699219 92.421875 C 109.910156 92.367188 110.117188 92.3125 110.316406 92.238281 C 110.503906 92.167969 110.59375 92.035156 110.589844 91.835938 C 110.484375 91.519531 109.964844 91.777344 109.929688 91.296875 C 110.398438 90.90625 111.15625 91.023438 111.652344 90.460938 C 110.527344 90.277344 109.441406 90.699219 108.378906 90.4375 C 108.324219 90.097656 108.554688 90.054688 108.765625 90.027344 C 110.132812 89.8125 111.492188 89.597656 112.859375 89.394531 C 113.414062 89.316406 113.976562 89.261719 114.421875 88.710938 C 113.253906 88.546875 112.152344 88.410156 111.039062 88.5 C 110.121094 88.59375 109.269531 88.871094 108.476562 89.339844 C 106.152344 90.628906 104.527344 92.503906 103.710938 95.054688 Z M 66.503906 113.789062 C 67.835938 113.277344 69.105469 112.644531 70.320312 111.890625 C 72.792969 110.390625 75.375 109.109375 78.070312 108.046875 C 79.941406 107.292969 81.554688 106.175781 83.066406 104.882812 C 83.488281 104.515625 83.894531 104.128906 84.296875 103.738281 C 86.746094 101.375 89.171875 98.984375 91.363281 96.371094 C 92.300781 95.253906 93.167969 94.066406 94.078125 92.917969 C 94.441406 92.457031 94.835938 92.011719 95.3125 91.441406 C 94.558594 91.386719 94.097656 91.507812 93.78125 92.078125 C 93.519531 92.554688 93.273438 93.058594 92.863281 93.492188 C 92.398438 92.921875 93.089844 92.453125 92.84375 91.972656 C 92.316406 92.351562 92.316406 92.351562 91.789062 93.308594 C 91.5 93.839844 91.210938 94.367188 90.929688 94.90625 C 90.648438 95.441406 90.5 96.011719 90.140625 96.609375 C 89.851562 95.640625 89.953125 95.226562 91.09375 92.46875 C 90.855469 92.238281 90.730469 92.449219 90.621094 92.609375 C 90.023438 93.511719 89.535156 94.46875 89.160156 95.484375 C 89.058594 95.742188 89.046875 96.078125 88.667969 96.210938 C 88.421875 95.621094 88.699219 95.09375 88.832031 94.570312 C 88.953125 94.074219 89.140625 93.589844 89.300781 93.105469 C 89.042969 92.914062 88.984375 93.128906 88.910156 93.261719 C 88.105469 94.691406 87.390625 96.164062 87.054688 97.789062 C 87.039062 97.941406 86.957031 98.042969 86.808594 98.09375 C 86.46875 98.011719 86.570312 97.6875 86.59375 97.484375 C 86.714844 96.496094 86.945312 95.535156 87.277344 94.597656 C 87.382812 94.273438 87.597656 93.980469 87.511719 93.542969 C 86.941406 93.71875 86.394531 93.949219 85.867188 94.230469 C 85.578125 94.378906 85.441406 94.648438 85.316406 94.921875 C 85.023438 95.546875 84.746094 96.179688 84.457031 96.804688 C 84.347656 97.027344 84.304688 97.3125 83.941406 97.410156 C 83.628906 96.710938 84.226562 96.109375 84.15625 95.449219 C 83.808594 95.191406 83.722656 95.480469 83.621094 95.707031 C 82.847656 97.585938 82.226562 99.515625 81.902344 101.523438 C 81.875 101.691406 81.835938 101.859375 81.789062 102.019531 C 81.78125 102.054688 81.734375 102.082031 81.707031 102.109375 C 81.285156 101.949219 81.402344 101.578125 81.421875 101.289062 C 81.519531 99.996094 81.730469 98.722656 82.058594 97.46875 C 82.140625 97.144531 82.335938 96.84375 82.21875 96.480469 C 81.957031 96.378906 81.933594 96.617188 81.882812 96.730469 C 80.976562 98.703125 80.449219 100.792969 80.070312 102.917969 C 79.996094 103.34375 79.925781 103.765625 79.84375 104.191406 C 79.816406 104.320312 79.738281 104.417969 79.5 104.425781 C 79.304688 103.320312 79.535156 102.230469 79.683594 101.144531 C 79.832031 100.058594 80.050781 99.03125 80.238281 97.980469 C 80.148438 97.953125 80.042969 97.886719 80.003906 97.914062 C 79.5 98.269531 78.945312 98.585938 78.746094 99.222656 C 78.847656 99.15625 78.957031 99.132812 79.078125 99.152344 C 79.195312 99.171875 79.292969 99.230469 79.363281 99.328125 C 79.003906 101.652344 78.644531 103.980469 78.277344 106.3125 C 78.269531 106.371094 78.160156 106.402344 78.09375 106.457031 C 78.0625 106.4375 78.007812 106.425781 78 106.402344 C 77.9375 106.242188 77.894531 106.082031 77.867188 105.914062 C 77.714844 104.316406 77.804688 102.730469 78.132812 101.15625 C 78.214844 100.753906 78.417969 100.363281 78.289062 99.933594 C 77.851562 100.226562 77.882812 100.730469 77.789062 101.15625 C 77.417969 102.789062 77.167969 104.4375 77.035156 106.105469 C 77.011719 106.453125 77.15625 106.882812 76.8125 107.191406 C 76.46875 106.601562 76.445312 106.601562 76.445312 106.191406 C 76.449219 105.121094 76.46875 104.050781 76.503906 102.980469 C 76.511719 102.734375 76.570312 102.484375 76.476562 102.246094 C 76.046875 102.414062 76.152344 102.871094 75.992188 103.191406 C 75.851562 103.480469 75.921875 103.890625 75.507812 104.03125 C 75.125 103.78125 75.523438 103.363281 75.285156 103.085938 C 75.113281 102.972656 75.113281 102.972656 74.621094 103.695312 C 74.519531 104.058594 74.984375 103.976562 75.042969 104.25 C 75.101562 104.527344 75.03125 104.761719 75.003906 105.015625 C 74.890625 105.914062 74.773438 106.808594 74.65625 107.703125 C 74.628906 107.902344 74.640625 108.125 74.363281 108.285156 C 73.933594 107.691406 74.011719 107.046875 74.011719 106.425781 C 74.011719 105.84375 74.050781 105.257812 74.082031 104.441406 C 73.324219 105.503906 73.476562 106.609375 73.070312 107.515625 C 72.582031 107.675781 72.75 107.066406 72.402344 107.015625 C 71.964844 107.945312 71.976562 109.011719 71.640625 109.957031 C 71.371094 110.050781 71.296875 109.902344 71.253906 109.722656 C 71.207031 109.476562 71.3125 109.199219 71.058594 108.984375 C 70.339844 109.511719 70.117188 110.519531 69.21875 110.859375 C 69.1875 110.871094 69.136719 110.832031 69.078125 110.808594 C 69.09375 110.6875 69.125 110.570312 69.171875 110.457031 C 71.117188 107.148438 73.148438 103.898438 75.617188 100.9375 C 78.378906 97.632812 81.757812 95.183594 85.632812 93.355469 C 87.511719 92.476562 89.445312 91.75 91.441406 91.183594 C 91.609375 91.136719 91.757812 91.054688 91.890625 90.9375 C 90.046875 91.097656 88.226562 91.328125 86.476562 91.941406 C 82.425781 93.363281 78.851562 95.488281 75.921875 98.695312 C 73.765625 101.0625 71.90625 103.644531 70.355469 106.445312 C 69.769531 107.5 69.191406 108.558594 68.628906 109.632812 C 68.007812 110.824219 67.230469 111.910156 66.476562 113.015625 C 66.3125 113.253906 66.035156 113.445312 66.070312 113.792969 C 66.207031 113.976562 66.367188 113.84375 66.503906 113.789062 Z M 78.621094 99.316406 C 78.371094 99.410156 78.195312 99.550781 78.292969 99.871094 C 78.535156 99.761719 78.515625 99.5 78.617188 99.3125 Z M 76.472656 101.578125 C 76.402344 101.78125 76.339844 101.988281 76.46875 102.191406 C 76.6875 101.988281 76.609375 101.78125 76.476562 101.578125 Z M 76.472656 101.578125"/></g></g></g><g clip-path="url(#s)"><g clip-path="url(#t)"><g clip-path="url(#u)"><path fill="#3E6913" d="M 84.089844 101.539062 C 84.210938 100.171875 84.375 98.804688 84.789062 97.492188 C 85.023438 96.761719 85.335938 96.050781 85.625 95.339844 C 85.734375 95.050781 85.917969 94.820312 86.171875 94.648438 C 86.296875 94.566406 86.542969 94.683594 86.585938 94.832031 C 86.667969 95.105469 86.558594 95.34375 86.464844 95.574219 C 85.613281 97.640625 84.976562 99.773438 84.554688 101.96875 C 84.523438 102.117188 84.507812 102.328125 84.269531 102.351562 C 83.960938 102.136719 84.070312 101.800781 84.089844 101.539062 Z M 84.089844 101.539062"/></g></g></g><g clip-path="url(#v)"><g clip-path="url(#w)"><g clip-path="url(#x)"><path fill="#3E6913" d="M 70.082031 83.4375 C 68.960938 82.546875 68.078125 81.449219 67.320312 80.242188 C 67.25 80.132812 67.273438 79.996094 67.5 79.90625 C 68.570312 81.003906 69.78125 82.015625 70.742188 83.316406 C 70.453125 83.683594 70.242188 83.566406 70.082031 83.4375 Z M 70.082031 83.4375"/></g></g></g><g clip-path="url(#y)"><g clip-path="url(#z)"><g clip-path="url(#A)"><path fill="#3E6913" d="M 102.355469 79.9375 C 101.960938 78.925781 101.710938 77.882812 101.597656 76.808594 C 101.585938 76.6875 101.636719 76.46875 101.945312 76.53125 C 102.339844 77.839844 103.011719 79.09375 103.140625 80.609375 C 102.953125 80.589844 102.785156 80.519531 102.640625 80.398438 C 102.5 80.273438 102.402344 80.121094 102.355469 79.9375 Z M 102.355469 79.9375"/></g></g></g><g clip-path="url(#B)"><g clip-path="url(#C)"><g clip-path="url(#D)"><path fill="#3E6913" d="M 107.9375 94.339844 C 108.042969 94.398438 108.125 94.484375 108.175781 94.597656 C 108.199219 94.660156 108.195312 94.722656 108.164062 94.785156 C 108.132812 94.84375 108.085938 94.886719 108.023438 94.90625 C 107.378906 95.1875 106.691406 95.175781 106.007812 95.148438 C 105.808594 95.144531 105.570312 95.183594 105.410156 94.796875 C 106.128906 94.519531 106.847656 94.417969 107.5625 94.292969 C 107.691406 94.273438 107.816406 94.289062 107.9375 94.339844 Z M 107.9375 94.339844"/></g></g></g></svg>