<svg xmlns="http://www.w3.org/2000/svg" width="150" viewBox="0 0 150 150" height="150" version="1.0"><defs><clipPath id="a"><path d="M 54 25 L 139 25 L 139 82 L 54 82 Z M 54 25"/></clipPath><clipPath id="b"><path d="M 77.917969 8.832031 L 149.886719 32.332031 L 126.074219 105.257812 L 54.105469 81.761719 Z M 77.917969 8.832031"/></clipPath><clipPath id="c"><path d="M 77.917969 8.832031 L 149.886719 32.332031 L 126.074219 105.257812 L 54.105469 81.761719 Z M 77.917969 8.832031"/></clipPath><clipPath id="d"><path d="M 107 57 L 114 57 L 114 64 L 107 64 Z M 107 57"/></clipPath><clipPath id="e"><path d="M 77.917969 8.832031 L 149.886719 32.332031 L 126.074219 105.257812 L 54.105469 81.761719 Z M 77.917969 8.832031"/></clipPath><clipPath id="f"><path d="M 77.917969 8.832031 L 149.886719 32.332031 L 126.074219 105.257812 L 54.105469 81.761719 Z M 77.917969 8.832031"/></clipPath><clipPath id="g"><path d="M 116 33 L 119 33 L 119 39 L 116 39 Z M 116 33"/></clipPath><clipPath id="h"><path d="M 77.917969 8.832031 L 149.886719 32.332031 L 126.074219 105.257812 L 54.105469 81.761719 Z M 77.917969 8.832031"/></clipPath><clipPath id="i"><path d="M 77.917969 8.832031 L 149.886719 32.332031 L 126.074219 105.257812 L 54.105469 81.761719 Z M 77.917969 8.832031"/></clipPath><clipPath id="j"><path d="M 83 47 L 85 47 L 85 53 L 83 53 Z M 83 47"/></clipPath><clipPath id="k"><path d="M 77.917969 8.832031 L 149.886719 32.332031 L 126.074219 105.257812 L 54.105469 81.761719 Z M 77.917969 8.832031"/></clipPath><clipPath id="l"><path d="M 77.917969 8.832031 L 149.886719 32.332031 L 126.074219 105.257812 L 54.105469 81.761719 Z M 77.917969 8.832031"/></clipPath><clipPath id="m"><path d="M 86 67 L 90 67 L 90 69 L 86 69 Z M 86 67"/></clipPath><clipPath id="n"><path d="M 77.917969 8.832031 L 149.886719 32.332031 L 126.074219 105.257812 L 54.105469 81.761719 Z M 77.917969 8.832031"/></clipPath><clipPath id="o"><path d="M 77.917969 8.832031 L 149.886719 32.332031 L 126.074219 105.257812 L 54.105469 81.761719 Z M 77.917969 8.832031"/></clipPath><clipPath id="p"><path d="M 9 69 L 97 69 L 97 116 L 9 116 Z M 9 69"/></clipPath><clipPath id="q"><path d="M 60.785156 42.421875 L 108.71875 92.957031 L 57.453125 141.585938 L 9.515625 91.050781 Z M 60.785156 42.421875"/></clipPath><clipPath id="r"><path d="M 60.785156 42.421875 L 108.71875 92.957031 L 57.453125 141.585938 L 9.515625 91.050781 Z M 60.785156 42.421875"/></clipPath><clipPath id="s"><path d="M 63 94 L 66 94 L 66 103 L 63 103 Z M 63 94"/></clipPath><clipPath id="t"><path d="M 60.785156 42.421875 L 108.71875 92.957031 L 57.453125 141.585938 L 9.515625 91.050781 Z M 60.785156 42.421875"/></clipPath><clipPath id="u"><path d="M 60.785156 42.421875 L 108.71875 92.957031 L 57.453125 141.585938 L 9.515625 91.050781 Z M 60.785156 42.421875"/></clipPath><clipPath id="v"><path d="M 79 79 L 83 79 L 83 84 L 79 84 Z M 79 79"/></clipPath><clipPath id="w"><path d="M 60.785156 42.421875 L 108.71875 92.957031 L 57.453125 141.585938 L 9.515625 91.050781 Z M 60.785156 42.421875"/></clipPath><clipPath id="x"><path d="M 60.785156 42.421875 L 108.71875 92.957031 L 57.453125 141.585938 L 9.515625 91.050781 Z M 60.785156 42.421875"/></clipPath><clipPath id="y"><path d="M 46 76 L 49 76 L 49 81 L 46 81 Z M 46 76"/></clipPath><clipPath id="z"><path d="M 60.785156 42.421875 L 108.71875 92.957031 L 57.453125 141.585938 L 9.515625 91.050781 Z M 60.785156 42.421875"/></clipPath><clipPath id="A"><path d="M 60.785156 42.421875 L 108.71875 92.957031 L 57.453125 141.585938 L 9.515625 91.050781 Z M 60.785156 42.421875"/></clipPath><clipPath id="B"><path d="M 41 94 L 45 94 L 45 96 L 41 96 Z M 41 94"/></clipPath><clipPath id="C"><path d="M 60.785156 42.421875 L 108.71875 92.957031 L 57.453125 141.585938 L 9.515625 91.050781 Z M 60.785156 42.421875"/></clipPath><clipPath id="D"><path d="M 60.785156 42.421875 L 108.71875 92.957031 L 57.453125 141.585938 L 9.515625 91.050781 Z M 60.785156 42.421875"/></clipPath></defs><g clip-path="url(#a)"><g clip-path="url(#b)"><g clip-path="url(#c)"><path fill="#3E6913" d="M 138.570312 64.582031 C 138.308594 64.382812 138.03125 64.21875 137.730469 64.085938 C 134.828125 62.832031 132.28125 60.980469 129.621094 59.3125 C 127.117188 57.738281 124.542969 56.300781 121.746094 55.292969 C 118.152344 54 114.515625 53.03125 110.632812 53.214844 C 107.757812 53.347656 104.941406 53.695312 102.222656 54.699219 C 101.222656 55.066406 100.214844 55.421875 99.203125 55.785156 C 99.105469 55.519531 99.25 55.367188 99.375 55.25 C 100.851562 53.792969 102.140625 52.179688 103.375 50.519531 C 103.578125 50.261719 103.816406 50.039062 104.089844 49.855469 C 104.785156 49.363281 105.527344 48.964844 106.316406 48.65625 C 107.457031 48.214844 108.613281 47.835938 109.792969 47.527344 C 111.886719 46.976562 113.894531 46.207031 115.824219 45.230469 C 118.40625 43.914062 120.738281 42.292969 122.371094 39.828125 C 124.398438 36.769531 126.746094 33.945312 128.949219 31.027344 C 129.53125 30.230469 130.074219 29.402344 130.578125 28.550781 C 130.820312 28.148438 131 27.71875 131.117188 27.261719 C 131.269531 26.640625 130.910156 26.140625 130.296875 26.003906 C 130.023438 25.941406 129.742188 25.917969 129.460938 25.929688 C 128.710938 25.953125 127.964844 26.039062 127.230469 26.195312 C 126.179688 26.445312 125.117188 26.636719 124.066406 26.878906 C 120.027344 27.820312 116.339844 29.441406 113.351562 32.441406 C 111.757812 34.039062 110.148438 35.609375 108.609375 37.253906 C 106.648438 39.339844 105.382812 41.746094 104.96875 44.570312 C 104.765625 45.984375 104.277344 47.292969 103.5 48.492188 C 103.09375 49.125 102.671875 49.746094 102.238281 50.359375 C 100.394531 52.933594 98.179688 55.164062 95.828125 57.257812 C 94.660156 58.296875 93.371094 59.140625 91.953125 59.789062 C 91.570312 59.964844 91.199219 60.164062 90.8125 60.335938 C 89.226562 61.046875 87.679688 61.835938 86.007812 62.335938 C 84.996094 62.640625 84.691406 62.640625 83.617188 62.316406 C 83.648438 61.933594 83.988281 61.800781 84.21875 61.585938 C 86.382812 59.589844 87.835938 57.164062 88.578125 54.3125 C 89.304688 51.539062 90.273438 48.839844 91.144531 46.109375 C 91.597656 44.726562 92.121094 43.371094 92.714844 42.039062 C 93.46875 40.320312 94.226562 38.59375 94.789062 36.800781 C 94.925781 36.398438 95.027344 35.992188 95.089844 35.574219 C 95.1875 34.769531 94.714844 34.328125 93.90625 34.4375 C 93.582031 34.496094 93.269531 34.582031 92.960938 34.695312 C 92.328125 34.898438 91.773438 35.265625 91.238281 35.636719 C 89.804688 36.617188 88.378906 37.609375 86.960938 38.609375 C 86.351562 39.042969 85.753906 39.503906 85.1875 39.992188 C 82.351562 42.433594 80.1875 45.320312 79.125 48.976562 C 78.089844 52.554688 77.304688 56.164062 77.550781 59.925781 C 77.585938 60.390625 77.59375 60.859375 77.578125 61.328125 C 77.535156 62.410156 77.457031 63.480469 77.050781 64.507812 C 76.804688 65.195312 76.378906 65.734375 75.761719 66.125 C 74.730469 66.773438 73.726562 67.464844 72.695312 68.113281 C 71.980469 68.566406 71.238281 68.976562 70.527344 69.421875 C 70.390625 69.5 70.3125 69.617188 70.296875 69.777344 C 67.929688 70.898438 65.660156 72.195312 63.492188 73.671875 C 60.328125 75.796875 56.921875 78.207031 54.464844 81.144531 C 54.378906 81.230469 54.335938 81.335938 54.335938 81.457031 C 54.335938 81.578125 54.378906 81.679688 54.464844 81.765625 C 54.550781 81.851562 54.65625 81.894531 54.777344 81.894531 C 54.898438 81.894531 55 81.851562 55.085938 81.765625 C 56.632812 80.550781 58.046875 79.167969 59.574219 77.933594 C 61.066406 76.726562 62.609375 75.589844 64.203125 74.527344 C 66.796875 72.796875 69.523438 71.277344 72.261719 69.792969 C 73.800781 69.820312 75.261719 69.464844 76.730469 69.078125 C 77.953125 68.757812 79.203125 68.507812 80.402344 68.105469 C 81.535156 67.730469 82.503906 67.917969 83.449219 68.582031 C 84.21875 69.117188 85.023438 69.597656 85.808594 70.113281 C 87.453125 71.195312 89.097656 72.289062 90.75 73.355469 C 92.234375 74.273438 93.824219 74.949219 95.519531 75.382812 C 97.507812 75.921875 99.566406 76.128906 101.632812 76.242188 C 102.203125 76.292969 102.753906 76.207031 103.285156 75.980469 C 103.402344 75.921875 103.503906 75.847656 103.589844 75.746094 C 103.671875 75.648438 103.734375 75.535156 103.769531 75.40625 C 103.804688 75.28125 103.808594 75.152344 103.789062 75.023438 C 103.769531 74.894531 103.722656 74.777344 103.648438 74.667969 C 103.496094 74.425781 103.308594 74.21875 103.082031 74.042969 C 102.707031 73.761719 102.320312 73.5 101.917969 73.261719 C 100.523438 72.394531 99.109375 71.5625 97.734375 70.667969 C 95.773438 69.367188 93.988281 67.859375 92.378906 66.140625 C 91.195312 64.902344 89.804688 63.964844 88.210938 63.335938 C 88.007812 63.253906 87.742188 63.238281 87.671875 62.804688 C 89.832031 61.898438 91.925781 60.960938 93.949219 59.875 C 94.378906 59.648438 94.832031 59.570312 95.308594 59.640625 C 96.574219 59.789062 97.804688 60.039062 98.976562 60.554688 C 100.433594 61.195312 101.875 61.882812 103.355469 62.457031 C 107.433594 64.011719 111.589844 65.300781 115.832031 66.328125 C 117.933594 66.847656 120.070312 67.097656 122.242188 66.84375 C 125.457031 66.464844 128.679688 66.253906 131.917969 66.414062 C 133.703125 66.527344 135.476562 66.445312 137.246094 66.171875 C 137.667969 66.128906 138.070312 66.015625 138.457031 65.835938 C 139 65.546875 139.058594 64.957031 138.570312 64.582031 Z M 109.171875 38.207031 C 110.621094 36.605469 112.191406 35.121094 113.6875 33.574219 C 116.636719 30.542969 120.253906 28.800781 124.3125 27.875 C 125.546875 27.59375 126.789062 27.347656 128.027344 27.09375 C 128.664062 26.96875 129.304688 26.863281 129.914062 27.015625 C 130.101562 27.300781 129.992188 27.519531 129.878906 27.722656 C 129.328125 28.707031 128.707031 29.644531 128.011719 30.53125 C 125.855469 33.316406 123.585938 36.011719 121.644531 38.957031 C 120.300781 40.996094 118.496094 42.53125 116.359375 43.695312 C 115.25 44.308594 114.113281 44.863281 112.949219 45.359375 C 112.394531 45.59375 111.808594 45.753906 111.234375 45.953125 C 111.101562 45.550781 111.398438 45.503906 111.550781 45.386719 C 112.910156 44.3125 114.363281 43.367188 115.714844 42.269531 C 118.855469 39.703125 121.617188 36.777344 123.992188 33.484375 C 124.902344 32.234375 125.921875 31.0625 126.886719 29.847656 C 127.054688 29.640625 127.3125 29.472656 127.226562 29.078125 C 126.703125 29.007812 126.410156 29.40625 126.070312 29.683594 C 125.675781 30.015625 125.273438 30.34375 124.90625 30.703125 C 124.582031 31.027344 124.300781 31.394531 123.949219 31.804688 C 123.566406 30.925781 124.058594 30.003906 123.503906 29.28125 C 123.277344 29.261719 123.175781 29.378906 123.164062 29.59375 C 123.042969 31.296875 122.628906 32.921875 121.917969 34.472656 C 121.402344 34.34375 121.792969 33.710938 121.246094 33.609375 C 120.789062 34.628906 120.585938 35.804688 119.84375 36.996094 C 119.777344 36.121094 120.09375 35.527344 120.136719 34.898438 C 120.1875 34.199219 120.308594 33.496094 120.296875 32.796875 C 120.285156 32.175781 120.453125 31.515625 120.015625 30.796875 C 119.691406 31.253906 119.710938 31.59375 119.6875 31.910156 C 119.542969 33.941406 118.957031 35.867188 118.335938 37.792969 C 118.078125 38.671875 117.585938 39.394531 116.859375 39.960938 C 116.464844 40.261719 116.128906 40.660156 115.523438 40.945312 C 115.613281 39.984375 115.992188 39.226562 116.121094 38.417969 C 116.257812 37.542969 116.429688 36.664062 116.503906 35.777344 C 116.566406 34.964844 116.804688 34.128906 116.601562 33.316406 C 116.292969 33.199219 116.226562 33.398438 116.1875 33.570312 C 115.847656 35.03125 115.5 36.492188 115.1875 37.957031 C 114.855469 39.480469 114.316406 40.929688 113.746094 42.367188 C 113.703125 42.5 113.609375 42.601562 113.359375 42.53125 C 113.394531 41.609375 114.085938 40.765625 113.9375 39.789062 C 113.53125 39.761719 113.492188 40.027344 113.402344 40.222656 C 112.878906 41.324219 112.359375 42.429688 111.84375 43.535156 C 111.648438 43.957031 111.652344 43.957031 110.9375 44.410156 C 110.824219 43.984375 111.09375 43.683594 111.191406 43.355469 C 111.3125 42.953125 111.472656 42.558594 111.605469 42.152344 C 111.722656 41.796875 111.839844 41.4375 111.925781 41.074219 C 112.023438 40.664062 112.105469 40.25 112.175781 39.832031 C 112.242188 39.464844 112.289062 39.09375 112.332031 38.714844 C 112.378906 38.296875 112.40625 37.875 112.445312 37.453125 C 112.480469 37.082031 112.554688 36.707031 112.296875 36.382812 C 111.984375 36.414062 111.960938 36.65625 111.914062 36.878906 C 111.554688 38.628906 111.105469 40.351562 110.558594 42.050781 C 110.316406 42.789062 110.09375 43.539062 109.507812 44.425781 C 109.496094 43.511719 109.78125 42.914062 109.851562 42.285156 C 109.921875 41.71875 110.207031 41.144531 109.78125 40.464844 C 109.414062 41.046875 109.390625 41.621094 109.203125 42.136719 C 109.015625 42.652344 108.84375 43.207031 108.628906 43.726562 C 108.417969 44.246094 108.183594 44.761719 107.921875 45.261719 C 107.660156 45.757812 107.539062 46.304688 107.148438 46.699219 C 106.839844 46.617188 106.871094 46.441406 106.925781 46.257812 C 107.257812 44.988281 107.597656 43.71875 107.925781 42.445312 C 108.003906 42.136719 108.152344 41.816406 107.730469 41.511719 C 106.96875 43.03125 106.703125 44.730469 105.875 46.207031 C 105.5625 46.035156 105.75 45.792969 105.78125 45.613281 C 105.910156 44.875 106.070312 44.144531 106.230469 43.410156 C 106.699219 41.394531 107.785156 39.722656 109.164062 38.207031 Z M 78.773438 55.054688 C 79.164062 52.496094 79.800781 50 80.683594 47.566406 C 81.273438 45.964844 82.261719 44.585938 83.332031 43.269531 C 84.214844 42.160156 85.222656 41.183594 86.359375 40.335938 C 88.253906 38.960938 90.175781 37.621094 92.097656 36.28125 C 92.492188 36.023438 92.898438 35.792969 93.324219 35.589844 C 93.523438 35.488281 93.75 35.394531 93.996094 35.535156 C 94.136719 35.972656 93.90625 36.355469 93.757812 36.734375 C 93.125 38.355469 92.507812 39.980469 91.800781 41.566406 C 91.109375 43.109375 90.503906 44.6875 89.988281 46.296875 C 89.160156 48.890625 88.21875 51.445312 87.535156 54.085938 C 86.746094 57.136719 85.027344 59.613281 82.59375 61.605469 C 82.535156 61.65625 82.425781 61.644531 82.339844 61.65625 C 82.324219 61.628906 82.285156 61.585938 82.296875 61.574219 C 83.984375 58.898438 85.167969 55.984375 86.269531 53.039062 C 86.578125 52.25 86.832031 51.445312 87.039062 50.625 C 87.785156 47.359375 89.105469 44.296875 90.476562 41.257812 C 90.667969 40.828125 90.875 40.40625 91.058594 39.976562 C 91.132812 39.8125 91.210938 39.625 90.960938 39.402344 C 90.429688 39.785156 90.203125 40.40625 89.867188 40.933594 C 89.53125 41.464844 89.253906 41.976562 88.972656 42.457031 C 88.539062 42.484375 88.570312 42.179688 88.496094 41.992188 C 88.332031 41.558594 88.246094 41.074219 87.753906 40.875 C 87.511719 40.960938 87.519531 41.132812 87.574219 41.316406 C 87.789062 42.183594 87.941406 43.058594 87.800781 44.023438 C 87.351562 43.871094 87.53125 43.246094 87.109375 43.128906 C 87.039062 43.171875 86.914062 43.21875 86.910156 43.257812 C 86.898438 44.007812 86.929688 44.753906 87 45.5 C 87.113281 46.402344 86.996094 47.273438 86.648438 48.113281 C 86.546875 48.363281 86.476562 48.628906 86.367188 49.007812 C 86.019531 48.617188 86.066406 48.226562 85.96875 47.898438 C 85.859375 47.542969 85.785156 47.171875 85.675781 46.8125 C 85.554688 46.40625 85.421875 46.007812 85.273438 45.609375 C 85.140625 45.261719 84.96875 44.925781 84.832031 44.578125 C 84.691406 44.230469 84.539062 43.90625 84.21875 43.726562 C 83.902344 43.84375 84.003906 44.039062 84.0625 44.199219 C 84.972656 46.648438 85.242188 49.210938 85.359375 51.796875 C 85.402344 52.71875 85.035156 53.695312 84.398438 54.617188 C 83.992188 54.203125 84.171875 53.519531 83.714844 53.132812 C 83.457031 53.140625 83.433594 53.304688 83.449219 53.507812 C 83.507812 54.488281 83.558594 55.472656 83.605469 56.453125 C 83.628906 56.722656 83.542969 56.949219 83.34375 57.136719 C 83.035156 56.917969 83.074219 56.585938 83.046875 56.296875 C 82.90625 54.648438 82.503906 53.058594 82.003906 51.492188 C 81.921875 51.242188 81.886719 50.921875 81.398438 50.929688 C 81.652344 52.445312 81.929688 53.945312 82 55.460938 C 82.070312 56.9375 82.367188 58.421875 82.046875 59.882812 C 81.664062 59.914062 81.730469 59.664062 81.707031 59.515625 C 81.527344 58.304688 81.238281 57.121094 80.832031 55.964844 C 80.738281 55.734375 80.636719 55.539062 80.273438 55.558594 C 80.554688 57.363281 80.964844 59.164062 80.597656 61.167969 C 79.898438 57.597656 79.898438 57.597656 79.25 57.121094 C 79.429688 59.0625 79.648438 60.953125 79.640625 62.890625 C 78.898438 62.570312 78.898438 62.570312 78.367188 62.589844 C 78.695312 61.925781 78.539062 61.210938 78.542969 60.523438 C 78.5625 58.699219 78.484375 56.878906 78.773438 55.054688 Z M 78.390625 64.289062 C 78.175781 63.644531 78.625 63.105469 78.371094 62.601562 C 78.648438 63.105469 79 63.601562 78.386719 64.285156 Z M 74.878906 68.332031 C 75.957031 67.574219 77.152344 67.25 78.464844 67.359375 C 77.332031 67.878906 76.117188 68.144531 74.878906 68.332031 Z M 96.976562 71.582031 C 98.714844 72.433594 101.625 74.25 102.332031 74.914062 C 101.695312 75.207031 100.636719 75.195312 99.183594 74.859375 C 99.035156 74.675781 99.238281 74.511719 99.191406 74.25 C 98.695312 73.957031 98.152344 74.253906 97.625 74.269531 C 97.097656 74.289062 96.621094 74.332031 96 74.371094 C 96.570312 73.734375 97.476562 73.925781 97.835938 73.214844 C 97.535156 72.933594 97.207031 73.078125 96.898438 73.144531 C 95.984375 73.355469 95.0625 73.492188 94.125 73.554688 C 93.566406 73.574219 93.566406 73.574219 92.753906 73.019531 C 94.292969 72.53125 95.730469 72.277344 96.972656 71.582031 Z M 91.320312 66.585938 C 92.402344 67.621094 93.40625 68.742188 94.597656 69.660156 C 95.046875 70.003906 95.492188 70.339844 95.933594 70.683594 C 96.074219 70.792969 96.265625 70.875 96.21875 71.230469 C 95.59375 71.515625 94.863281 71.625 94.144531 71.753906 C 93.261719 71.902344 92.378906 71.996094 91.5 72.117188 C 91.019531 72.183594 90.574219 72.148438 90.246094 71.707031 C 90.34375 71.210938 91.058594 71.410156 91.132812 70.816406 C 90.285156 70.488281 89.242188 71.167969 88.320312 70.414062 C 89.015625 69.929688 89.773438 69.808594 90.414062 69.457031 C 91.023438 69.121094 91.71875 68.917969 92.144531 68.316406 C 92.023438 67.960938 91.773438 68.082031 91.585938 68.175781 C 90.605469 68.644531 89.585938 68.984375 88.519531 69.191406 C 88.160156 69.269531 87.78125 69.304688 87.410156 69.359375 C 86.882812 69.449219 86.390625 69.378906 85.96875 69 C 85.664062 68.726562 85.230469 68.59375 84.984375 68.132812 C 86.144531 67.253906 87.699219 66.992188 88.792969 65.851562 C 88.363281 65.585938 88.078125 65.808594 87.816406 65.925781 C 86.660156 66.449219 85.464844 66.863281 84.230469 67.167969 C 84.003906 67.222656 83.777344 67.273438 83.546875 67.308594 C 83.332031 67.339844 83.175781 67.257812 83.078125 67.066406 C 83.015625 66.710938 83.644531 66.683594 83.429688 66.207031 C 82.78125 66.078125 82.117188 66.582031 81.351562 66.300781 C 82.332031 65.542969 83.589844 65.386719 84.464844 64.585938 C 84.34375 64.234375 84.101562 64.316406 83.882812 64.398438 C 82.46875 64.894531 81.058594 65.394531 79.644531 65.90625 C 79.078125 66.117188 78.511719 66.355469 77.800781 66.058594 C 78.832031 65.300781 79.808594 64.601562 80.921875 64.109375 C 81.847656 63.726562 82.808594 63.554688 83.804688 63.589844 C 86.691406 63.621094 89.21875 64.570312 91.316406 66.585938 Z M 136.570312 65.253906 C 135.03125 65.453125 133.488281 65.507812 131.941406 65.414062 C 128.800781 65.257812 125.667969 65.367188 122.546875 65.746094 C 120.367188 65.992188 118.246094 65.761719 116.132812 65.304688 C 115.539062 65.175781 114.949219 65.015625 114.363281 64.851562 C 110.800781 63.855469 107.246094 62.824219 103.800781 61.464844 C 102.324219 60.878906 100.878906 60.195312 99.417969 59.566406 C 98.832031 59.316406 98.222656 59.09375 97.472656 58.796875 C 98.164062 58.355469 98.667969 58.230469 99.265625 58.613281 C 99.761719 58.933594 100.257812 59.289062 100.871094 59.488281 C 101.023438 58.703125 100.121094 58.613281 100.105469 58.027344 C 100.804688 58.117188 100.804688 58.113281 101.804688 58.761719 C 102.355469 59.117188 102.90625 59.472656 103.453125 59.839844 C 104 60.207031 104.4375 60.675781 105.089844 61.0625 C 104.863281 59.984375 104.550781 59.640625 102.03125 57.597656 C 102.144531 57.253906 102.371094 57.390625 102.558594 57.484375 C 103.597656 58.039062 104.558594 58.703125 105.445312 59.476562 C 105.675781 59.671875 105.859375 59.984375 106.289062 59.917969 C 106.222656 59.226562 105.679688 58.871094 105.285156 58.4375 C 104.910156 58.023438 104.480469 57.660156 104.078125 57.277344 C 104.226562 56.964844 104.390625 57.136719 104.527344 57.226562 C 106.039062 58.179688 107.484375 59.210938 108.648438 60.589844 C 108.742188 60.730469 108.875 60.785156 109.039062 60.753906 C 109.324219 60.503906 109.058594 60.246094 108.933594 60.0625 C 108.304688 59.183594 107.585938 58.382812 106.785156 57.65625 C 106.515625 57.402344 106.15625 57.234375 106.015625 56.769531 C 106.648438 56.644531 107.292969 56.582031 107.941406 56.582031 C 108.296875 56.574219 108.5625 56.757812 108.828125 56.953125 C 109.429688 57.402344 110.019531 57.863281 110.621094 58.308594 C 110.839844 58.46875 111.027344 58.714844 111.425781 58.621094 C 111.363281 57.792969 110.484375 57.523438 110.207031 56.859375 C 110.40625 56.433594 110.636719 56.664062 110.851562 56.832031 C 112.5625 58.226562 114.152344 59.746094 115.507812 61.496094 C 115.621094 61.640625 115.742188 61.78125 115.871094 61.914062 C 115.894531 61.941406 115.953125 61.941406 115.996094 61.953125 C 116.316406 61.582031 116.007812 61.289062 115.84375 61.023438 C 115.078125 59.839844 114.21875 58.734375 113.257812 57.703125 C 113.011719 57.4375 112.667969 57.25 112.59375 56.84375 C 112.789062 56.609375 112.933594 56.828125 113.042969 56.910156 C 114.929688 58.324219 116.515625 60.046875 117.976562 61.878906 C 118.269531 62.246094 118.554688 62.617188 118.851562 62.980469 C 118.945312 63.089844 119.070312 63.140625 119.304688 63.023438 C 118.917969 61.867188 118.132812 60.945312 117.429688 59.988281 C 116.722656 59.027344 115.984375 58.160156 115.257812 57.253906 C 115.332031 57.183594 115.398438 57.0625 115.453125 57.070312 C 116.117188 57.148438 116.808594 57.164062 117.328125 57.667969 C 117.199219 57.65625 117.082031 57.691406 116.976562 57.773438 C 116.875 57.855469 116.8125 57.960938 116.792969 58.089844 C 118.339844 60.125 119.890625 62.160156 121.449219 64.195312 C 121.488281 64.246094 121.609375 64.222656 121.699219 64.238281 C 121.71875 64.207031 121.765625 64.167969 121.757812 64.136719 C 121.734375 63.957031 121.695312 63.777344 121.632812 63.605469 C 120.949219 62 120.042969 60.53125 118.917969 59.199219 C 118.632812 58.855469 118.234375 58.585938 118.132812 58.109375 C 118.703125 58.164062 118.9375 58.660156 119.246094 59.019531 C 120.445312 60.386719 121.539062 61.832031 122.527344 63.359375 C 122.730469 63.679688 122.816406 64.160156 123.304688 64.28125 C 123.328125 63.539062 123.347656 63.527344 123.136719 63.136719 C 122.578125 62.117188 122.007812 61.105469 121.417969 60.097656 C 121.285156 59.867188 121.097656 59.660156 121.0625 59.382812 C 121.5625 59.320312 121.699219 59.8125 122.015625 60.039062 C 122.296875 60.238281 122.445312 60.667969 122.910156 60.585938 C 123.148438 60.148438 122.554688 59.957031 122.636719 59.570312 C 122.742188 59.371094 122.742188 59.371094 123.589844 59.808594 C 123.871094 60.101562 123.382812 60.265625 123.472656 60.554688 C 123.558594 60.847656 123.746094 61.039062 123.90625 61.265625 C 124.480469 62.066406 125.054688 62.859375 125.628906 63.65625 C 125.757812 63.832031 125.863281 64.050781 126.207031 64.058594 C 126.3125 63.265625 125.90625 62.691406 125.585938 62.101562 C 125.28125 61.546875 124.941406 61.007812 124.488281 60.242188 C 125.761719 60.867188 126.191406 62 127.046875 62.65625 C 127.59375 62.558594 127.117188 62.0625 127.425781 61.832031 C 128.324219 62.492188 128.867188 63.519531 129.675781 64.246094 C 129.980469 64.203125 129.976562 64.019531 129.925781 63.828125 C 129.84375 63.566406 129.597656 63.355469 129.730469 63.019531 C 130.6875 63.152344 131.425781 63.996094 132.457031 63.855469 C 132.492188 63.851562 132.519531 63.789062 132.566406 63.738281 C 132.488281 63.628906 132.394531 63.535156 132.292969 63.453125 C 128.71875 61.292969 125.101562 59.242188 121.207031 57.691406 C 116.859375 55.960938 112.359375 55.367188 107.710938 55.625 C 105.460938 55.75 103.238281 56.0625 101.035156 56.550781 C 100.851562 56.589844 100.667969 56.589844 100.484375 56.546875 C 102.324219 55.746094 104.183594 55.023438 106.171875 54.707031 C 110.777344 53.972656 115.296875 54.15625 119.753906 55.707031 C 123.042969 56.851562 126.152344 58.359375 129.085938 60.230469 C 130.191406 60.9375 131.292969 61.648438 132.386719 62.382812 C 133.59375 63.199219 134.902344 63.832031 136.195312 64.5 C 136.472656 64.644531 136.835938 64.683594 136.980469 65.035156 C 136.953125 65.28125 136.726562 65.234375 136.566406 65.253906 Z M 117.5 57.691406 C 117.785156 57.652344 118.027344 57.695312 118.097656 58.054688 C 117.8125 58.074219 117.695312 57.816406 117.496094 57.6875 Z M 120.71875 58.742188 C 120.894531 58.902344 121.058594 59.066406 121.042969 59.328125 C 120.726562 59.246094 120.699219 59.007812 120.714844 58.746094 Z M 120.71875 58.742188"/></g></g></g><g clip-path="url(#d)"><g clip-path="url(#e)"><g clip-path="url(#f)"><path fill="#3E6913" d="M 113.421875 62.640625 C 112.597656 61.398438 111.734375 60.179688 110.660156 59.140625 C 110.058594 58.558594 109.390625 58.042969 108.746094 57.511719 C 108.492188 57.292969 108.199219 57.167969 107.867188 57.136719 C 107.703125 57.125 107.53125 57.363281 107.5625 57.523438 C 107.632812 57.828125 107.855469 58 108.066406 58.171875 C 109.949219 59.707031 111.660156 61.414062 113.203125 63.289062 C 113.308594 63.414062 113.433594 63.609375 113.671875 63.511719 C 113.855469 63.144531 113.578125 62.878906 113.421875 62.640625 Z M 113.421875 62.640625"/></g></g></g><g clip-path="url(#g)"><g clip-path="url(#h)"><g clip-path="url(#i)"><path fill="#3E6913" d="M 117.4375 38.117188 C 118.046875 36.6875 118.320312 35.179688 118.421875 33.636719 C 118.429688 33.496094 118.339844 33.375 118.078125 33.410156 C 117.621094 35.011719 116.988281 36.605469 116.742188 38.339844 C 117.210938 38.542969 117.347656 38.320312 117.4375 38.117188 Z M 117.4375 38.117188"/></g></g></g><g clip-path="url(#j)"><g clip-path="url(#k)"><g clip-path="url(#l)"><path fill="#3E6913" d="M 84.785156 51.449219 C 84.640625 50.28125 84.339844 49.152344 83.890625 48.066406 C 83.839844 47.945312 83.675781 47.761719 83.417969 47.984375 C 83.71875 49.433594 83.722656 50.980469 84.382812 52.496094 C 84.554688 52.378906 84.675781 52.226562 84.75 52.035156 C 84.824219 51.84375 84.835938 51.648438 84.785156 51.449219 Z M 84.785156 51.449219"/></g></g></g><g clip-path="url(#m)"><g clip-path="url(#n)"><g clip-path="url(#o)"><path fill="#3E6913" d="M 86.910156 68.089844 C 86.839844 68.199219 86.804688 68.320312 86.816406 68.453125 C 86.828125 68.527344 86.863281 68.585938 86.921875 68.628906 C 86.984375 68.671875 87.046875 68.6875 87.121094 68.671875 C 87.882812 68.605469 88.53125 68.242188 89.171875 67.863281 C 89.359375 67.757812 89.609375 67.671875 89.5625 67.214844 C 88.730469 67.324219 87.988281 67.597656 87.242188 67.847656 C 87.109375 67.894531 86.996094 67.976562 86.910156 68.089844 Z M 86.910156 68.089844"/></g></g></g><g clip-path="url(#p)"><g clip-path="url(#q)"><g clip-path="url(#r)"><path fill="#3E6913" d="M 85.410156 114.121094 C 85.289062 113.847656 85.136719 113.589844 84.949219 113.351562 C 83.148438 111.066406 81.902344 108.449219 80.480469 105.933594 C 79.144531 103.566406 77.691406 101.273438 75.871094 99.234375 C 73.53125 96.613281 71.011719 94.234375 67.789062 92.683594 C 65.402344 91.53125 62.96875 90.582031 60.332031 90.203125 C 59.355469 90.0625 58.386719 89.910156 57.410156 89.757812 C 57.445312 89.503906 57.628906 89.445312 57.785156 89.402344 C 59.617188 88.871094 61.367188 88.128906 63.097656 87.324219 C 63.375 87.203125 63.664062 87.128906 63.964844 87.101562 C 64.742188 87.003906 65.519531 87.007812 66.292969 87.101562 C 67.410156 87.242188 68.511719 87.445312 69.605469 87.710938 C 71.539062 88.179688 73.5 88.441406 75.492188 88.492188 C 78.160156 88.554688 80.757812 88.265625 83.160156 86.984375 C 86.140625 85.394531 89.28125 84.136719 92.34375 82.738281 C 93.167969 82.347656 93.96875 81.917969 94.75 81.445312 C 95.125 81.226562 95.457031 80.957031 95.75 80.636719 C 96.148438 80.203125 96.078125 79.636719 95.640625 79.257812 C 95.445312 79.089844 95.230469 78.949219 94.996094 78.835938 C 94.378906 78.523438 93.738281 78.269531 93.074219 78.070312 C 92.117188 77.816406 91.171875 77.503906 90.214844 77.242188 C 86.53125 76.234375 82.835938 75.933594 79.097656 77.054688 C 77.113281 77.648438 75.117188 78.21875 73.152344 78.875 C 70.648438 79.707031 68.570312 81.101562 66.996094 83.207031 C 66.210938 84.261719 65.242188 85.105469 64.085938 85.738281 C 63.480469 86.070312 62.867188 86.390625 62.246094 86.695312 C 59.625 87.972656 56.855469 88.808594 54.03125 89.476562 C 52.632812 89.808594 51.214844 89.925781 49.785156 89.828125 C 49.398438 89.804688 49.007812 89.804688 48.621094 89.773438 C 47.027344 89.652344 45.429688 89.617188 43.855469 89.289062 C 42.902344 89.09375 42.65625 88.960938 41.929688 88.226562 C 42.121094 87.929688 42.457031 87.96875 42.734375 87.898438 C 45.363281 87.226562 47.605469 85.902344 49.457031 83.914062 C 51.257812 81.992188 53.230469 80.226562 55.128906 78.398438 C 56.105469 77.476562 57.125 76.605469 58.1875 75.789062 C 59.554688 74.726562 60.921875 73.664062 62.164062 72.453125 C 62.453125 72.191406 62.714844 71.90625 62.949219 71.59375 C 63.378906 70.984375 63.1875 70.421875 62.488281 70.15625 C 62.199219 70.0625 61.90625 69.992188 61.609375 69.949219 C 61.007812 69.839844 60.398438 69.894531 59.800781 69.957031 C 58.210938 70.125 56.625 70.304688 55.039062 70.492188 C 54.351562 70.578125 53.667969 70.6875 52.996094 70.835938 C 49.628906 71.570312 46.609375 72.960938 44.148438 75.457031 C 41.738281 77.902344 39.519531 80.480469 38.070312 83.632812 C 37.890625 84.027344 37.695312 84.410156 37.472656 84.78125 C 36.964844 85.636719 36.433594 86.472656 35.652344 87.125 C 35.15625 87.574219 34.570312 87.824219 33.902344 87.871094 C 32.78125 87.945312 31.664062 88.066406 30.546875 88.140625 C 29.769531 88.191406 28.988281 88.199219 28.21875 88.246094 C 28.074219 88.253906 27.960938 88.316406 27.875 88.433594 C 25.464844 88.304688 23.0625 88.363281 20.660156 88.609375 C 17.167969 88.945312 13.351562 89.40625 10.074219 90.707031 C 9.964844 90.742188 9.886719 90.804688 9.832031 90.90625 C 9.78125 91.003906 9.769531 91.105469 9.800781 91.210938 C 9.835938 91.320312 9.898438 91.398438 10 91.453125 C 10.097656 91.503906 10.199219 91.515625 10.304688 91.480469 C 12.089844 91.175781 13.839844 90.675781 15.621094 90.34375 C 17.355469 90.019531 19.101562 89.777344 20.863281 89.613281 C 23.71875 89.347656 26.59375 89.3125 29.460938 89.308594 C 30.691406 90.003906 32.035156 90.355469 33.386719 90.6875 C 34.519531 90.960938 35.640625 91.308594 36.789062 91.507812 C 37.871094 91.699219 38.570312 92.273438 39.046875 93.226562 C 39.433594 93.996094 39.875 94.738281 40.28125 95.5 C 41.140625 97.097656 41.988281 98.703125 42.859375 100.289062 C 43.660156 101.683594 44.648438 102.925781 45.828125 104.015625 C 47.203125 105.328125 48.78125 106.394531 50.398438 107.390625 C 50.839844 107.683594 51.324219 107.851562 51.851562 107.898438 C 51.972656 107.90625 52.089844 107.890625 52.199219 107.84375 C 52.3125 107.800781 52.410156 107.734375 52.496094 107.648438 C 52.578125 107.5625 52.640625 107.464844 52.679688 107.347656 C 52.722656 107.234375 52.734375 107.117188 52.722656 107 C 52.703125 106.738281 52.644531 106.484375 52.539062 106.242188 C 52.359375 105.851562 52.160156 105.472656 51.941406 105.101562 C 51.191406 103.789062 50.410156 102.496094 49.691406 101.167969 C 48.675781 99.257812 47.890625 97.253906 47.339844 95.160156 C 46.929688 93.636719 46.214844 92.269531 45.199219 91.0625 C 45.070312 90.910156 44.863281 90.777344 44.996094 90.398438 C 47.140625 90.609375 49.246094 90.765625 51.363281 90.773438 C 51.808594 90.777344 52.210938 90.914062 52.566406 91.179688 C 53.523438 91.855469 54.410156 92.59375 55.132812 93.523438 C 56.03125 94.683594 56.894531 95.871094 57.84375 96.984375 C 60.460938 100.023438 63.261719 102.890625 66.242188 105.578125 C 67.714844 106.921875 69.335938 108.058594 71.207031 108.804688 C 73.972656 109.902344 76.671875 111.144531 79.222656 112.691406 C 80.617188 113.566406 82.089844 114.277344 83.640625 114.828125 C 84.003906 114.980469 84.378906 115.066406 84.769531 115.085938 C 85.335938 115.089844 85.640625 114.636719 85.410156 114.121094 Z M 73.1875 79.894531 C 75.066406 79.230469 76.984375 78.714844 78.875 78.117188 C 82.59375 76.953125 86.285156 77.128906 89.976562 78.15625 C 91.097656 78.46875 92.210938 78.8125 93.324219 79.148438 C 93.894531 79.324219 94.460938 79.523438 94.886719 79.910156 C 94.910156 80.226562 94.726562 80.351562 94.546875 80.46875 C 93.671875 81.027344 92.757812 81.511719 91.804688 81.925781 C 88.839844 83.238281 85.820312 84.425781 82.957031 85.960938 C 80.972656 87.023438 78.839844 87.476562 76.597656 87.484375 C 75.429688 87.492188 74.269531 87.445312 73.109375 87.335938 C 72.554688 87.285156 72.011719 87.160156 71.460938 87.066406 C 71.527344 86.683594 71.789062 86.777344 71.964844 86.746094 C 73.535156 86.472656 75.128906 86.34375 76.699219 86.046875 C 80.371094 85.34375 83.890625 84.183594 87.257812 82.558594 C 88.539062 81.941406 89.878906 81.4375 91.191406 80.878906 C 91.417969 80.785156 91.703125 80.761719 91.804688 80.40625 C 91.414062 80.117188 91.003906 80.3125 90.605469 80.390625 C 90.140625 80.484375 89.671875 80.574219 89.214844 80.707031 C 88.8125 80.824219 88.421875 81 87.957031 81.175781 C 88.035156 80.296875 88.835938 79.765625 88.703125 78.9375 C 88.527344 78.824219 88.398438 78.875 88.292969 79.042969 C 87.449219 80.367188 86.398438 81.503906 85.144531 82.449219 C 84.78125 82.117188 85.378906 81.777344 84.976562 81.457031 C 84.160156 82.082031 83.480469 82.941406 82.359375 83.585938 C 82.6875 82.847656 83.203125 82.503906 83.515625 82.015625 C 83.863281 81.46875 84.265625 80.953125 84.566406 80.382812 C 84.828125 79.875 85.257812 79.414062 85.214844 78.640625 C 84.75 78.867188 84.617188 79.148438 84.460938 79.398438 C 83.453125 80.980469 82.136719 82.285156 80.789062 83.566406 C 80.191406 84.167969 79.476562 84.539062 78.644531 84.675781 C 78.1875 84.75 77.742188 84.925781 77.128906 84.890625 C 77.625 84.152344 78.261719 83.703125 78.71875 83.105469 C 79.21875 82.457031 79.742188 81.820312 80.1875 81.136719 C 80.597656 80.503906 81.15625 79.929688 81.347656 79.183594 C 81.148438 78.957031 81.007812 79.089844 80.902344 79.207031 C 79.984375 80.242188 79.0625 81.273438 78.167969 82.324219 C 77.230469 83.410156 76.160156 84.347656 75.066406 85.265625 C 74.972656 85.351562 74.851562 85.394531 74.679688 85.226562 C 75.113281 84.496094 76.042969 84.117188 76.351562 83.257812 C 76.035156 83.058594 75.886719 83.257812 75.730469 83.375 C 74.820312 84.039062 73.917969 84.707031 73.015625 85.375 C 72.671875 85.632812 72.671875 85.636719 71.898438 85.6875 C 71.992188 85.292969 72.339844 85.167969 72.5625 84.945312 C 72.839844 84.671875 73.140625 84.421875 73.425781 84.152344 C 73.679688 83.914062 73.929688 83.675781 74.160156 83.417969 C 74.417969 83.132812 74.667969 82.832031 74.90625 82.523438 C 75.121094 82.253906 75.324219 81.976562 75.523438 81.6875 C 75.746094 81.367188 75.953125 81.039062 76.167969 80.714844 C 76.359375 80.429688 76.585938 80.160156 76.515625 79.78125 C 76.253906 79.671875 76.125 79.859375 75.988281 80.019531 C 74.933594 81.277344 73.8125 82.476562 72.625 83.613281 C 72.105469 84.101562 71.597656 84.613281 70.730469 85.074219 C 71.125 84.328125 71.617188 83.96875 71.953125 83.492188 C 72.253906 83.066406 72.738281 82.726562 72.691406 81.988281 C 72.140625 82.296875 71.867188 82.753906 71.492188 83.089844 C 71.113281 83.425781 70.730469 83.796875 70.328125 84.125 C 69.929688 84.453125 69.511719 84.765625 69.082031 85.054688 C 68.652344 85.34375 68.316406 85.734375 67.824219 85.882812 C 67.613281 85.679688 67.714844 85.554688 67.839844 85.425781 C 68.667969 84.542969 69.496094 83.664062 70.320312 82.777344 C 70.519531 82.5625 70.78125 82.367188 70.574219 81.933594 C 69.289062 82.835938 68.328125 84.097656 67.007812 84.925781 C 66.832031 84.652344 67.089844 84.539062 67.195312 84.40625 C 67.625 83.863281 68.074219 83.339844 68.527344 82.816406 C 69.789062 81.390625 71.402344 80.515625 73.183594 79.886719 Z M 41.195312 80.226562 C 42.632812 78.324219 44.242188 76.582031 46.027344 75 C 47.207031 73.960938 48.613281 73.273438 50.054688 72.679688 C 51.253906 72.167969 52.5 71.816406 53.789062 71.628906 C 55.929688 71.34375 58.074219 71.101562 60.214844 70.855469 C 60.648438 70.820312 61.078125 70.8125 61.511719 70.835938 C 61.714844 70.839844 61.941406 70.863281 62.078125 71.082031 C 62 71.496094 61.644531 71.710938 61.359375 71.953125 C 60.136719 72.984375 58.925781 74.03125 57.65625 75.007812 C 56.417969 75.953125 55.238281 76.964844 54.113281 78.042969 C 52.308594 79.78125 50.425781 81.4375 48.714844 83.277344 C 46.734375 85.402344 44.253906 86.65625 41.414062 87.203125 C 41.34375 87.21875 41.261719 87.160156 41.183594 87.132812 C 41.183594 87.101562 41.171875 87.050781 41.1875 87.046875 C 43.726562 85.621094 45.960938 83.777344 48.148438 81.875 C 48.742188 81.371094 49.300781 80.832031 49.828125 80.257812 C 51.863281 77.941406 54.273438 76.039062 56.71875 74.175781 C 57.0625 73.914062 57.414062 73.664062 57.753906 73.394531 C 57.886719 73.292969 58.03125 73.175781 57.925781 72.886719 C 57.328125 72.964844 56.871094 73.367188 56.367188 73.648438 C 55.863281 73.929688 55.414062 74.222656 54.976562 74.488281 C 54.613281 74.320312 54.769531 74.089844 54.796875 73.90625 C 54.851562 73.480469 54.992188 73.050781 54.683594 72.675781 C 54.449219 72.640625 54.382812 72.78125 54.34375 72.953125 C 54.136719 73.75 53.878906 74.527344 53.339844 75.246094 C 53.042969 74.921875 53.464844 74.496094 53.171875 74.21875 C 53.097656 74.222656 52.976562 74.203125 52.957031 74.234375 C 52.617188 74.835938 52.3125 75.457031 52.042969 76.089844 C 51.738281 76.871094 51.261719 77.523438 50.613281 78.050781 C 50.421875 78.210938 50.25 78.394531 49.992188 78.65625 C 49.886719 78.1875 50.09375 77.890625 50.15625 77.582031 C 50.222656 77.242188 50.328125 76.910156 50.398438 76.574219 C 50.476562 76.191406 50.546875 75.808594 50.597656 75.425781 C 50.644531 75.082031 50.652344 74.734375 50.695312 74.394531 C 50.734375 74.050781 50.753906 73.71875 50.574219 73.433594 C 50.265625 73.390625 50.261719 73.59375 50.238281 73.753906 C 49.898438 76.132812 48.992188 78.324219 47.957031 80.46875 C 47.585938 81.238281 46.859375 81.863281 45.9375 82.332031 C 45.792969 81.820312 46.238281 81.34375 46.035156 80.832031 C 45.824219 80.726562 45.734375 80.847656 45.65625 81.019531 C 45.273438 81.839844 44.886719 82.65625 44.492188 83.472656 C 44.394531 83.703125 44.222656 83.847656 43.980469 83.910156 C 43.828125 83.601562 44.003906 83.347656 44.109375 83.101562 C 44.714844 81.707031 45.089844 80.242188 45.375 78.753906 C 45.414062 78.515625 45.527344 78.242188 45.128906 78.035156 C 44.671875 79.371094 44.234375 80.707031 43.628906 81.96875 C 43.035156 83.195312 42.625 84.523438 41.722656 85.570312 C 41.402344 85.425781 41.566406 85.253906 41.613281 85.121094 C 42 84.0625 42.28125 82.976562 42.460938 81.863281 C 42.488281 81.636719 42.492188 81.433594 42.1875 81.289062 C 41.625 82.875 41.167969 84.515625 39.988281 85.972656 C 40.988281 82.777344 40.988281 82.777344 40.675781 82.105469 C 39.964844 83.757812 39.316406 85.382812 38.460938 86.953125 C 38 86.367188 38 86.363281 37.558594 86.148438 C 38.117188 85.753906 38.304688 85.109375 38.609375 84.550781 C 39.425781 83.085938 40.160156 81.574219 41.195312 80.226562 Z M 36.832031 87.535156 C 36.941406 86.917969 37.542969 86.679688 37.558594 86.160156 C 37.5625 86.6875 37.628906 87.246094 36.832031 87.53125 Z M 32.21875 89.273438 C 33.425781 89.128906 34.535156 89.390625 35.546875 90.054688 C 34.402344 89.980469 33.300781 89.660156 32.214844 89.269531 Z M 48.675781 101.578125 C 49.707031 103.027344 51.269531 105.773438 51.550781 106.621094 C 50.90625 106.582031 50.054688 106.109375 49.023438 105.199219 C 48.988281 104.984375 49.222656 104.941406 49.300781 104.707031 C 49.023438 104.253906 48.457031 104.257812 48.023438 104.039062 C 47.585938 103.824219 47.183594 103.648438 46.660156 103.410156 C 47.402344 103.140625 48.054688 103.695312 48.65625 103.277344 C 48.535156 102.917969 48.207031 102.890625 47.929688 102.808594 C 47.097656 102.578125 46.289062 102.285156 45.503906 101.925781 C 45.042969 101.699219 45.042969 101.699219 44.628906 100.894531 C 46.085938 101.171875 47.363281 101.597656 48.675781 101.578125 Z M 46.292969 95.054688 C 46.710938 96.367188 47.035156 97.714844 47.59375 98.980469 C 47.804688 99.453125 48.019531 99.925781 48.226562 100.394531 C 48.292969 100.542969 48.410156 100.695312 48.214844 100.960938 C 47.585938 100.917969 46.949219 100.6875 46.308594 100.476562 C 45.527344 100.210938 44.773438 99.902344 44.007812 99.613281 C 43.589844 99.457031 43.246094 99.234375 43.175781 98.734375 C 43.472656 98.375 43.960938 98.847656 44.28125 98.398438 C 43.738281 97.761719 42.601562 97.855469 42.183594 96.839844 C 42.957031 96.753906 43.625 96.988281 44.296875 96.984375 C 44.9375 96.980469 45.589844 97.117188 46.199219 96.820312 C 46.257812 96.476562 46 96.46875 45.804688 96.460938 C 44.808594 96.410156 43.835938 96.238281 42.882812 95.941406 C 42.558594 95.84375 42.234375 95.707031 41.910156 95.59375 C 41.445312 95.429688 41.074219 95.160156 40.902344 94.667969 C 40.773438 94.3125 40.480469 94.015625 40.484375 93.535156 C 41.808594 93.332031 43.179688 93.800781 44.570312 93.355469 C 44.335938 92.953125 44.007812 93.007812 43.746094 92.984375 C 42.578125 92.902344 41.429688 92.714844 40.300781 92.421875 C 40.089844 92.367188 39.882812 92.3125 39.683594 92.238281 C 39.496094 92.167969 39.40625 92.035156 39.410156 91.835938 C 39.515625 91.519531 40.035156 91.777344 40.070312 91.296875 C 39.601562 90.90625 38.84375 91.023438 38.347656 90.460938 C 39.472656 90.277344 40.558594 90.699219 41.621094 90.4375 C 41.675781 90.097656 41.445312 90.054688 41.234375 90.027344 C 39.867188 89.8125 38.507812 89.597656 37.140625 89.394531 C 36.585938 89.316406 36.023438 89.261719 35.578125 88.710938 C 36.746094 88.546875 37.847656 88.410156 38.960938 88.5 C 39.878906 88.59375 40.730469 88.871094 41.523438 89.339844 C 43.847656 90.628906 45.472656 92.503906 46.289062 95.054688 Z M 83.496094 113.789062 C 82.164062 113.277344 80.894531 112.644531 79.679688 111.890625 C 77.207031 110.390625 74.625 109.109375 71.929688 108.046875 C 70.058594 107.292969 68.445312 106.175781 66.933594 104.882812 C 66.511719 104.515625 66.105469 104.128906 65.703125 103.738281 C 63.253906 101.375 60.828125 98.984375 58.636719 96.371094 C 57.699219 95.253906 56.832031 94.066406 55.921875 92.917969 C 55.558594 92.457031 55.164062 92.011719 54.6875 91.441406 C 55.441406 91.386719 55.902344 91.507812 56.21875 92.078125 C 56.480469 92.554688 56.726562 93.058594 57.136719 93.492188 C 57.601562 92.921875 56.910156 92.453125 57.15625 91.972656 C 57.683594 92.351562 57.683594 92.351562 58.210938 93.308594 C 58.5 93.839844 58.789062 94.367188 59.070312 94.90625 C 59.351562 95.441406 59.5 96.011719 59.859375 96.609375 C 60.148438 95.640625 60.046875 95.226562 58.90625 92.46875 C 59.144531 92.238281 59.269531 92.449219 59.378906 92.609375 C 59.976562 93.511719 60.464844 94.46875 60.839844 95.484375 C 60.941406 95.742188 60.953125 96.078125 61.332031 96.210938 C 61.578125 95.621094 61.300781 95.09375 61.167969 94.570312 C 61.046875 94.074219 60.859375 93.589844 60.699219 93.105469 C 60.957031 92.914062 61.015625 93.128906 61.089844 93.261719 C 61.894531 94.691406 62.609375 96.164062 62.945312 97.789062 C 62.960938 97.941406 63.042969 98.042969 63.191406 98.09375 C 63.53125 98.011719 63.429688 97.6875 63.40625 97.484375 C 63.285156 96.496094 63.054688 95.535156 62.722656 94.597656 C 62.617188 94.273438 62.402344 93.980469 62.488281 93.542969 C 63.058594 93.71875 63.605469 93.949219 64.132812 94.230469 C 64.421875 94.378906 64.558594 94.648438 64.683594 94.921875 C 64.976562 95.546875 65.253906 96.179688 65.542969 96.804688 C 65.652344 97.027344 65.695312 97.3125 66.058594 97.410156 C 66.371094 96.710938 65.773438 96.109375 65.84375 95.449219 C 66.191406 95.191406 66.277344 95.480469 66.378906 95.707031 C 67.152344 97.585938 67.773438 99.515625 68.097656 101.523438 C 68.125 101.691406 68.164062 101.859375 68.210938 102.019531 C 68.21875 102.054688 68.265625 102.082031 68.292969 102.109375 C 68.714844 101.949219 68.597656 101.578125 68.578125 101.289062 C 68.480469 99.996094 68.269531 98.722656 67.941406 97.46875 C 67.859375 97.144531 67.664062 96.84375 67.78125 96.480469 C 68.042969 96.378906 68.066406 96.617188 68.117188 96.730469 C 69.023438 98.703125 69.550781 100.792969 69.929688 102.917969 C 70.003906 103.34375 70.074219 103.765625 70.15625 104.191406 C 70.183594 104.320312 70.261719 104.417969 70.5 104.425781 C 70.695312 103.320312 70.464844 102.230469 70.316406 101.144531 C 70.167969 100.058594 69.949219 99.03125 69.761719 97.980469 C 69.851562 97.953125 69.957031 97.886719 69.996094 97.914062 C 70.5 98.269531 71.054688 98.585938 71.253906 99.222656 C 71.152344 99.15625 71.042969 99.132812 70.921875 99.152344 C 70.804688 99.171875 70.707031 99.230469 70.636719 99.328125 C 70.996094 101.652344 71.355469 103.980469 71.722656 106.3125 C 71.730469 106.371094 71.839844 106.402344 71.90625 106.457031 C 71.9375 106.4375 71.992188 106.425781 72 106.402344 C 72.0625 106.242188 72.105469 106.082031 72.132812 105.914062 C 72.285156 104.316406 72.195312 102.730469 71.867188 101.15625 C 71.785156 100.753906 71.582031 100.363281 71.710938 99.933594 C 72.148438 100.226562 72.117188 100.730469 72.210938 101.15625 C 72.582031 102.789062 72.832031 104.4375 72.964844 106.105469 C 72.988281 106.453125 72.84375 106.882812 73.1875 107.191406 C 73.53125 106.601562 73.554688 106.601562 73.554688 106.191406 C 73.550781 105.121094 73.53125 104.050781 73.496094 102.980469 C 73.488281 102.734375 73.429688 102.484375 73.523438 102.246094 C 73.953125 102.414062 73.847656 102.871094 74.007812 103.191406 C 74.148438 103.480469 74.078125 103.890625 74.492188 104.03125 C 74.875 103.78125 74.476562 103.363281 74.714844 103.085938 C 74.886719 102.972656 74.886719 102.972656 75.378906 103.695312 C 75.480469 104.058594 75.015625 103.976562 74.957031 104.25 C 74.898438 104.527344 74.96875 104.761719 74.996094 105.015625 C 75.109375 105.914062 75.226562 106.808594 75.34375 107.703125 C 75.371094 107.902344 75.359375 108.125 75.636719 108.285156 C 76.066406 107.691406 75.988281 107.046875 75.988281 106.425781 C 75.988281 105.84375 75.949219 105.257812 75.917969 104.441406 C 76.675781 105.503906 76.523438 106.609375 76.929688 107.515625 C 77.417969 107.675781 77.25 107.066406 77.597656 107.015625 C 78.035156 107.945312 78.023438 109.011719 78.359375 109.957031 C 78.628906 110.050781 78.703125 109.902344 78.746094 109.722656 C 78.792969 109.476562 78.6875 109.199219 78.941406 108.984375 C 79.660156 109.511719 79.882812 110.519531 80.78125 110.859375 C 80.8125 110.871094 80.863281 110.832031 80.921875 110.808594 C 80.90625 110.6875 80.875 110.570312 80.828125 110.457031 C 78.882812 107.148438 76.851562 103.898438 74.382812 100.9375 C 71.621094 97.632812 68.242188 95.183594 64.367188 93.355469 C 62.488281 92.476562 60.554688 91.75 58.558594 91.183594 C 58.390625 91.136719 58.242188 91.054688 58.109375 90.9375 C 59.953125 91.097656 61.773438 91.328125 63.523438 91.941406 C 67.574219 93.363281 71.148438 95.488281 74.078125 98.695312 C 76.234375 101.0625 78.09375 103.644531 79.644531 106.445312 C 80.230469 107.5 80.808594 108.558594 81.371094 109.632812 C 81.992188 110.824219 82.769531 111.910156 83.523438 113.015625 C 83.6875 113.253906 83.964844 113.445312 83.929688 113.792969 C 83.792969 113.976562 83.632812 113.84375 83.496094 113.789062 Z M 71.378906 99.316406 C 71.628906 99.410156 71.804688 99.550781 71.707031 99.871094 C 71.464844 99.761719 71.484375 99.5 71.382812 99.3125 Z M 73.527344 101.578125 C 73.597656 101.78125 73.660156 101.988281 73.53125 102.191406 C 73.3125 101.988281 73.390625 101.78125 73.523438 101.578125 Z M 73.527344 101.578125"/></g></g></g><g clip-path="url(#s)"><g clip-path="url(#t)"><g clip-path="url(#u)"><path fill="#3E6913" d="M 65.910156 101.539062 C 65.789062 100.171875 65.625 98.804688 65.210938 97.492188 C 64.976562 96.761719 64.664062 96.050781 64.375 95.339844 C 64.265625 95.050781 64.082031 94.820312 63.828125 94.648438 C 63.703125 94.566406 63.457031 94.683594 63.414062 94.832031 C 63.332031 95.105469 63.441406 95.34375 63.535156 95.574219 C 64.386719 97.640625 65.023438 99.773438 65.445312 101.96875 C 65.476562 102.117188 65.492188 102.328125 65.730469 102.351562 C 66.039062 102.136719 65.929688 101.800781 65.910156 101.539062 Z M 65.910156 101.539062"/></g></g></g><g clip-path="url(#v)"><g clip-path="url(#w)"><g clip-path="url(#x)"><path fill="#3E6913" d="M 79.917969 83.4375 C 81.039062 82.546875 81.921875 81.449219 82.679688 80.242188 C 82.75 80.132812 82.726562 79.996094 82.5 79.90625 C 81.429688 81.003906 80.21875 82.015625 79.257812 83.316406 C 79.546875 83.683594 79.757812 83.566406 79.917969 83.4375 Z M 79.917969 83.4375"/></g></g></g><g clip-path="url(#y)"><g clip-path="url(#z)"><g clip-path="url(#A)"><path fill="#3E6913" d="M 47.644531 79.9375 C 48.039062 78.925781 48.289062 77.882812 48.402344 76.808594 C 48.414062 76.6875 48.363281 76.46875 48.054688 76.53125 C 47.660156 77.839844 46.988281 79.09375 46.859375 80.609375 C 47.046875 80.589844 47.214844 80.519531 47.359375 80.398438 C 47.5 80.273438 47.597656 80.121094 47.644531 79.9375 Z M 47.644531 79.9375"/></g></g></g><g clip-path="url(#B)"><g clip-path="url(#C)"><g clip-path="url(#D)"><path fill="#3E6913" d="M 42.0625 94.339844 C 41.957031 94.398438 41.875 94.484375 41.824219 94.597656 C 41.800781 94.660156 41.804688 94.722656 41.835938 94.785156 C 41.867188 94.84375 41.914062 94.886719 41.976562 94.90625 C 42.621094 95.1875 43.308594 95.175781 43.992188 95.148438 C 44.191406 95.144531 44.429688 95.183594 44.589844 94.796875 C 43.871094 94.519531 43.152344 94.417969 42.4375 94.292969 C 42.308594 94.273438 42.183594 94.289062 42.0625 94.339844 Z M 42.0625 94.339844"/></g></g></g></svg>